<svg xmlns="http://www.w3.org/2000/svg" viewBox="0 0 199.95 216.93">
  <defs>
    <style>
      .a {
        fill: #44b2e5;
      }

      .b {
        fill: none;
      }
    </style>
  </defs>
  <path class="a" d="M114.83,186.42c38.78-5.65,68.68-36.69,68.68-79.4a80.23,80.23,0,0,0-80.22-80.23c-5.33,0-9.85-11.26-14.65-10.47-4.36.71-9.07,13.41-13,14.71a73.53,73.53,0,0,0-12.73,5.59c-7.18-4.33-30.85-11.83-36.17-5.78S20.41,61.33,31,72.35a96.45,96.45,0,0,0-8,39c0,44.52,28.69,90.77,86.42,94.75,2.43-9.68,5.43-19.68,5.43-19.68"/>
  <g>
    <path class="b" d="M29.06,59A82.33,82.33,0,0,1,46.27,38.64l-.16.13-.23-.14c-3.71-2.13-8.47-2.57-14.17-1.31C26.68,42.85,24.88,52.19,29.06,59Z"/>
    <path class="b" d="M120.8,37.17a58.66,58.66,0,0,1-.2,11.18,8,8,0,1,1-15.9-1.71c1.54-14.38-2.59-23.36-16.47-25.49-9.88,5-15.08,18.5-5.09,28.5A8,8,0,1,1,71.83,61a34.36,34.36,0,0,1-8.94-14.76c-30.64,20-39,63.31-26,98.36,5,7.5,22.31,8,30.65,6.69a8,8,0,0,1,2.29,15.83,81.93,81.93,0,0,1-20.56,0c11.89,15.52,29.75,27.24,54.09,30.52.71-2.62,1.39-5.08,2-7.15C90,180.34,82.74,162.11,89.7,140.74a8,8,0,0,1,15.24.08c11.83-6.6,20-6.66,23.21-19.37a8,8,0,1,1,15.53,3.86c-4.23,17-15.51,22.2-24.57,26.35-6.08,2.79-11.33,5.2-15.22,10.82l-.06.08c1.23,5.74,4.58,11.67,12.21,15.73,34.14-6.06,59.46-33.64,59.46-71.09A72.33,72.33,0,0,0,120.8,37.17Zm-19.63,84.21A10.42,10.42,0,1,1,111.59,111,10.42,10.42,0,0,1,101.17,121.38Z"/>
    <path d="M101.17,100.54A10.42,10.42,0,1,0,111.59,111,10.42,10.42,0,0,0,101.17,100.54Z"/>
    <path d="M115.15,19.78C106.93,7.39,89.47,3.52,84.28,5.45a35.7,35.7,0,0,0-20.93,22.1q-2,.94-3.9,2l.45-.26c-12.31-11.8-32.61-9.56-37.54-5.21A35.69,35.69,0,0,0,11.13,55.62,31,31,0,0,0,21.51,74.55h0C-.55,133.38,32.68,209,108.84,214.27l.56,0a8,8,0,0,0,7.75-6.06c1.34-5.34,2.88-10.84,3.95-14.6,41.71-8.4,70.4-43.24,70.4-86.43A88.36,88.36,0,0,0,115.15,19.78ZM31.71,37.32c5.7-1.26,10.46-.82,14.17,1.31l.23.14.16-.13A82.55,82.55,0,0,0,29.06,59C24.91,52.23,26.65,42.88,31.71,37.32Zm84.33,141c-7.63-4.06-11-10-12.21-15.73l.06-.08c9.83-14.22,33-9.83,39.79-37.17a8,8,0,1,0-15.53-3.86c-3.16,12.71-11.38,12.77-23.21,19.37a8,8,0,0,0-15.24-.08c-6.93,21.26.2,39.54,15.66,49.75-.59,2.07-1.27,4.53-2,7.15-24.34-3.28-42.2-15-54.09-30.52a82,82,0,0,0,20.56,0,8,8,0,0,0-2.29-15.83c-8.59,1.31-25.72.74-30.65-6.69-13-35-4.71-78.32,26-98.36,8.64,30,30.06,13.25,20.25,3.44S78,26.27,88.23,21.15c13.89,2.13,18,11.12,16.47,25.49a8,8,0,1,0,15.9,1.71,58.66,58.66,0,0,0,.2-11.18,72.33,72.33,0,0,1,54.7,70C175.5,144.56,150.27,172.21,116,178.29Z"/>
  </g>
</svg>
