<svg width="14" height="23" viewBox="0 0 14 23" fill="none" xmlns="http://www.w3.org/2000/svg">
<path d="M7.00011 22C6.26825 22 6.00306 21.5623 6.00306 21.0223L5.67493 7.9777C5.67493 7.43773 6.2682 7 7.00006 7C7.73191 7 8.32519 7.43773 8.32519 7.9777L7.99705 21.0223C7.9971 21.5623 7.73197 22 7.00011 22Z" fill="#D5DEE4"/>
<path d="M7 7.26434C6.26818 7.26434 5.67493 7.85759 5.67493 8.58942L5.77074 13.7512C6.16575 13.8424 6.57727 13.8906 7 13.8906C7.42273 13.8906 7.83426 13.8424 8.22932 13.7512L8.32513 8.58948C8.32508 7.85765 7.73183 7.26434 7 7.26434Z" fill="#BCCBD3"/>
<path d="M7 12.1953C10.3525 12.1953 13.0703 9.47754 13.0703 6.125C13.0703 2.77246 10.3525 0.0546875 7 0.0546875C3.64746 0.0546875 0.929688 2.77246 0.929688 6.125C0.929688 9.47754 3.64746 12.1953 7 12.1953Z" fill="#FF473E"/>
<path d="M2.65267 4.80154C3.13319 5.11944 3.96081 4.71497 4.50122 3.89813C5.04163 3.08128 5.09018 2.16139 4.60967 1.84349C4.12916 1.52559 3.30154 1.93006 2.76112 2.74691C2.22071 3.56375 2.17216 4.48364 2.65267 4.80154Z" fill="#FD7085"/>
</svg>
