<?xml version="1.0" encoding="UTF-8"?>
<svg id="Layer_1" data-name="Layer 1" xmlns="http://www.w3.org/2000/svg" viewBox="0 0 366.82 366.82">
  <defs>
    <style>
      .cls-1 {
        fill: #ffce45;
      }

      .cls-2 {
        fill: #fa4e04;
      }

      .cls-3 {
        fill: #ff981d;
      }
    </style>
  </defs>
  <ellipse cx="185.34" cy="182.96" rx="171.42" ry="169.9"/>
  <path class="cls-2" d="M69.01,76.17c-103.64,120.46-1.36,261.72,115.66,264.57v-27.01c-87.4.03-158.7-90.42-120.87-181.02,20.83-50.45,71.12-80.89,120.87-82.8v-23.97c-42.52.21-85.17,16.85-115.66,50.24Z"/>
  <path class="cls-3" d="M138.05,241.62v47.19c9.08,3.87,18.04,7.31,27.96,8.74h0c6.14,1.05,12.39,1.57,18.65,1.6v-29.31l-46.62-28.22Z"/>
  <path class="cls-2" d="M93.43,147.94c-2.97-2.77-7.81-.7-7.81,3.36,0,0,0,90.61,0,90.61,8.06,11.93,17.48,25.96,29.71,33.5v-72.82l69.34,43.34v-33.86c-31.4-19.47-63.7-39.27-91.23-64.14Z"/>
  <path class="cls-2" d="M171,135.55c-7.68-2.15-32.88-6.22-35.86-14.35-3.84-10.5,17.33-15.58,25.51-17.46,7.76-1.78,15.88-2.4,24-1.97v-28.72c-23.23-.92-46.51,4.33-66.26,16.97-54.64,46.77,17.58,64.26,66.26,74.76v-25.8c-5.08-1.2-9.71-2.34-13.66-3.44Z"/>
  <path class="cls-3" d="M184.66,25.93v23.97c35.33-1.35,70.38,11.68,94.4,42.2,0,0,11.77-5.21,29.36-7.26-30.11-39.39-76.86-59.15-123.76-58.92Z"/>
  <path class="cls-3" d="M303.85,286.99s.06.01.09.02c1.86-2.11,3.64-4.28,5.36-6.48,36.61-43.18,45.92-116.34,16.23-169.56-9.61-.47-19.43.69-28.36,3.22,1.4,2.24,2.73,4.52,4,6.84h-.02c36.61,69.39,5.65,153.04-66.43,182.61-16.85,6.91-33.74,10.07-50.07,10.08v27.01c40.62.99,83.02-14.71,119.19-53.74Z"/>
  <path class="cls-1" d="M284.82,240.72c.27-19.01,2.15-58.04-10.83-70.56-15.97-15.4-60.15-24.29-89.33-31.17v25.8c10.77,2.33,20.4,4.31,27.23,6.19,38.23,8.79-12.62,33.87-26.03,41.84-.4-.25-.8-.5-1.2-.74v33.86l.37.23,70.11-42.99v72.24c12.32-9.09,22.44-21.19,29.68-34.69Z"/>
  <path class="cls-1" d="M236.94,120.72c8.32-8.04,10.65-11.02,24.59-19.93-21.54-16.74-49.17-26.63-76.86-27.73v28.72c18.84,1.01,37.71,7.71,52.28,18.94Z"/>
  <path class="cls-2" d="M184.66,299.14c16.52.08,33.09-3.37,47.76-10.34,0,0,0-47.19,0-47.19-11.41,7.48-47.38,28.44-47.38,28.44l-.37-.23v29.31Z"/>
</svg>