<svg xmlns="http://www.w3.org/2000/svg" viewBox="0 0 366.8 366.8">
  <style>
    .st0 { fill: #9cd1ef; }
    .st1 { fill: #50a3d1; }
    .st2 { fill: #fff; }
  </style>
  <ellipse class="st1" cx="183.4" cy="183.4" rx="181.2" ry="179.6"/>
  <path class="st0" d="M60.5,70.2c-109.5,127.3-1.4,276.6,122.2,279.6v-28.5c-92.4,0-167.7-95.6-127.8-191.3,22-53.3,75.2-85.5,127.8-87.5v-25.3c-44.9.2-90,17.8-122.2,53.1Z"/>
  <path class="st0" d="M133.4,245.1v49.9c9.6,4.1,19.1,7.7,29.6,9.2c6.5,1.1,13.1,1.7,19.7,1.7v-31l-49.3-29.8Z"/>
  <path class="st0" d="M86.3,146.1c-3.1-2.9-8.3-.7-8.3,3.6v95.8c8.5,12.6,18.5,27.4,31.4,35.4v-77l73.3,45.8v-35.8c-33.2-20.6-67.3-41.5-96.4-67.8Z"/>
  <path class="st0" d="M168.3,133c-8.1-2.3-34.8-6.6-37.9-15.2-4.1-11.1,18.3-16.5,27-18.5,8.2-1.9,16.8-2.5,25.4-2.1v-30.4c-24.6-1-49.2,4.6-70,17.9-57.8,49.4,18.6,67.9,70,79v-27.3c-5.4-1.3-10.3-2.5-14.4-3.6Z"/>
  <path class="st2" d="M182.7,17.1v25.3c37.3-1.4,74.4,12.3,99.8,44.6,0,0,12.4-5.5,31-7.7-31.8-41.6-81.2-62.5-130.8-62.3Z"/>
  <path class="st2" d="M308.7,293.1c2-2.2,3.8-4.5,5.7-6.8,38.7-45.6,48.5-123,17.2-179.2-10.2-.5-20.5.7-30,3.4,1.5,2.4,2.9,4.8,4.2,7.2c38.7,73.3,6,161.8-70.2,193-17.8,7.3-35.7,10.6-52.9,10.7v28.5c42.9,1,87.7-15.5,126-56.8Z"/>
  <path class="st2" d="M288.6,244.2c.3-20.1,2.3-61.3-11.4-74.6-16.9-16.3-63.6-25.7-94.4-32.9v27.3c11.4,2.5,21.6,4.6,28.8,6.5,40.4,9.3-13.3,35.8-27.5,44.2-.4-.3-.8-.5-1.3-.8v35.8l.4.2,74.1-45.4v76.4c13-9.6,23.7-22.4,31.4-36.7Z"/>
  <path class="st2" d="M237.9,117.3c8.8-8.5,11.3-11.6,26-21.1-22.8-17.7-52-28.1-81.2-29.3v30.4c19.9,1.1,39.9,8.1,55.3,20Z"/>
  <path class="st2" d="M182.7,305.9c17.5,0,35-3.6,50.5-10.9v-49.9c-12.1,7.9-50.1,30.1-50.1,30.1l-.4-.2v31Z"/>
</svg>