<svg xmlns="http://www.w3.org/2000/svg" viewBox="0 0 2667.49 2306.54">
  <defs>
    <style>
      .a {
        fill: #554b47;
      }

      .b, .c {
        fill: none;
        stroke: #554b47;
        stroke-miterlimit: 10;
      }

      .b {
        stroke-width: 6px;
      }

      .c {
        stroke-width: 8px;
      }
    </style>
  </defs>
  <g>
    <path class="a" d="M1780.47,1646.89l166.08,101.81V1912l-166.08-101.8V1646.89m-8-14.28v182.08l182.08,111.61V1744.22l-182.08-111.61Z"/>
    <path class="a" d="M2128.64,1646.89v163.32L1962.55,1912V1748.7l166.09-101.81m8-14.28-182.09,111.61V1926.3l182.09-111.61V1632.61Z"/>
    <path class="a" d="M1954.55,1531l166.78,102.23-166.78,102.23-166.77-102.23L1954.55,1531m0-9.38-182.08,111.61,182.08,111.61,182.09-111.61-182.09-111.61Z"/>
  </g>
  <g>
    <path class="a" d="M482.78,599.11l166.09,101.8V864.23L482.78,762.42V599.11m-8-14.29V766.9L656.87,878.51V696.43L474.78,584.82Z"/>
    <path class="a" d="M831,599.11V762.42L664.87,864.23V700.91L831,599.11m8-14.29L656.87,696.43V878.51L839,766.9V584.82Z"/>
    <path class="a" d="M656.87,483.21,823.64,585.44,656.87,687.67,490.09,585.44,656.87,483.21m0-9.38L474.78,585.44,656.87,697.05,839,585.44,656.87,473.83Z"/>
  </g>
  <g>
    <path class="b" d="M1048,1585.6c-5.23,30.31-4.62,26.43-5.84,26.16l-36.54-7.91,19.36-32C1025.64,1570.8,1022.4,1568.58,1048,1585.6Z"/>
    <path class="b" d="M1052.56,1911.52c-25.13,17.73-22,15.42-22.63,14.37l-20.24-31.43,36.3-8.93C1047.21,1885.24,1046.48,1881.38,1052.56,1911.52Z"/>
    <path class="b" d="M825.31,2145.2c-30.3-5.23-26.42-4.62-26.16-5.84q4-18.59,7.92-36.54l32,19.36C840.12,2122.82,842.34,2119.58,825.31,2145.2Z"/>
    <path class="b" d="M499.4,2149.74c-17.73-25.12-15.42-21.95-14.37-22.62q16-10.3,31.43-20.24,4.38,17.84,8.92,36.3C525.68,2144.39,529.54,2143.67,499.4,2149.74Z"/>
    <path class="b" d="M265.72,1922.5c5.23-30.3,4.62-26.42,5.84-26.16l36.54,7.91-19.36,32C288.09,1937.3,291.33,1939.52,265.72,1922.5Z"/>
    <path class="b" d="M261.17,1596.58c25.13-17.73,21.95-15.42,22.63-14.37L304,1613.64l-36.3,8.93C266.53,1622.87,267.25,1626.73,261.17,1596.58Z"/>
    <path class="b" d="M488.42,1362.91c30.3,5.23,26.42,4.62,26.16,5.84q-4,18.59-7.91,36.53l-32-19.35C473.61,1385.28,471.4,1388.52,488.42,1362.91Z"/>
    <path class="b" d="M814.33,1358.36c17.73,25.13,15.43,22,14.37,22.63l-31.42,20.24q-4.39-17.85-8.93-36.3C788.05,1363.71,784.19,1364.44,814.33,1358.36Z"/>
    <path class="b" d="M967.77,1620.16c83,14.58,71.87,12.94,71.72,13.81-15.22,87.12-13.37,79.77-15.07,79.4L842.68,1674C871.78,1626,903.78,1573.1,939,1515c.9-1.49-5.71-5.2,68,43.6C1007.75,1559.05,1014.21,1549.83,967.77,1620.16Z"/>
    <path class="b" d="M971.38,1879.22c48.39,69,41.68,60,41,60.48-72.36,50.84-65.86,47-66.8,45.48-36.8-57.14-70.26-109.09-100.69-156.32l180.57-44.4c1.69-.41-.37-7.71,17.28,79C1042.87,1864.28,1054,1862.33,971.38,1879.22Z"/>
    <path class="b" d="M790.76,2065c-14.58,83-12.94,71.88-13.81,71.72-87.12-15.22-79.77-13.37-79.4-15.07,14.38-66.43,27.45-126.82,39.34-181.73L896,2036.15c1.49.9,5.2-5.71-43.6,68C851.87,2104.94,861.08,2111.39,790.76,2065Z"/>
    <path class="b" d="M531.7,2068.57c-69,48.38-60,41.67-60.48,40.95-50.84-72.37-47-65.86-45.49-66.81L582.06,1942c13.41,54.56,28.17,114.56,44.4,180.56.41,1.69,7.71-.36-79,17.29C546.64,2140.05,548.59,2151.13,531.7,2068.57Z"/>
    <path class="b" d="M346,1887.94c-83-14.58-71.88-12.93-71.73-13.81,15.23-87.11,13.38-79.77,15.08-79.4,66.42,14.39,126.82,27.46,181.73,39.34l-96.28,159.08c-.9,1.49,5.7,5.19-68-43.61C306,1949.06,299.53,1958.27,346,1887.94Z"/>
    <path class="b" d="M342.35,1628.89c-48.38-69-41.67-60-41-60.48,72.37-50.84,65.86-47,66.8-45.49l100.69,156.33-180.57,44.39c-1.68.42.37,7.71-17.28-78.94C270.87,1643.83,259.78,1645.78,342.35,1628.89Z"/>
    <path class="b" d="M523,1443.15c14.58-83,12.94-71.87,13.82-71.72,87.11,15.22,79.76,13.37,79.4,15.07-14.39,66.43-27.46,126.83-39.35,181.74L417.77,1472c-1.49-.9-5.19,5.71,43.6-68C461.86,1403.17,452.65,1396.71,523,1443.15Z"/>
    <path class="b" d="M782,1439.54c69-48.39,60-41.68,60.48-41,50.84,72.36,47,65.86,45.49,66.8L731.67,1566.08c-13.41-54.56-28.16-114.57-44.4-180.57-.41-1.69-7.7.37,79-17.28C767.09,1368.05,765.14,1357,782,1439.54Z"/>
    <path class="c" d="M721,1753.16l-41.33-8.94,21.9-36.17L666.06,1731q-4.87-19.86-10.09-41.06-4.62,21.34-8.94,41.33l-36.17-21.9q11.83,18.35,22.9,35.54l-41,10.09,41.32,8.94-21.9,36.16,35.54-22.9q4.89,19.88,10.09,41.06,4.62-21.33,8.94-41.32l36.17,21.9q-11.82-18.36-22.9-35.54Zm73.78-58.51c249.09,43.45,227.14,39.7,226.92,40.93-.82,4.75-1.6,9.21-2.33,13.41q1.26,6.27,2.71,13.34c.25,1.23,22.08-3.13-225.7,47.26C941.82,2016.45,929,1998.28,927.93,1999l-11.14,7.83-7.52,11.35c-.68,1,17.84,13.4-193-126.17-43.45,249.08-39.7,227.14-40.93,226.92l-13.42-2.34-13.34,2.71c-1.22.25,3.14,22.09-47.25-225.69-206.86,145.4-188.69,132.53-189.4,131.51L404.1,2014l-11.36-7.52c-1-.69-13.39,17.83,126.18-193C269.84,1770,291.78,1773.75,292,1772.52q1.25-7.11,2.34-13.41-1.27-6.27-2.72-13.34c-.24-1.22-22.08,3.14,225.7-47.25-145.4-206.86-132.54-188.69-131.52-189.41l11.14-7.83q3.54-5.33,7.52-11.35c.69-1-17.84-13.39,193,126.18C640.92,1367,637.17,1389,638.4,1389.18l13.41,2.34,13.34-2.71c1.22-.25-3.14-22.08,47.25,225.69C919.26,1469.1,901.09,1482,901.81,1483l7.83,11.14,11.35,7.51C922,1502.33,934.38,1483.81,794.81,1694.65Z"/>
  </g>
  <g>
    <path class="b" d="M2345.7,480.63c-5.23,30.3-4.62,26.43-5.84,26.16l-36.54-7.91,19.36-32C2323.33,465.83,2320.08,463.61,2345.7,480.63Z"/>
    <path class="b" d="M2350.24,806.55c-25.12,17.73-21.94,15.42-22.62,14.37l-20.24-31.43,36.3-8.93C2344.89,780.26,2344.17,776.4,2350.24,806.55Z"/>
    <path class="b" d="M2123,1040.22c-30.3-5.23-26.42-4.61-26.16-5.84l7.91-36.53,32,19.35C2137.8,1017.85,2140,1014.61,2123,1040.22Z"/>
    <path class="b" d="M1797.08,1044.77c-17.73-25.13-15.42-21.95-14.36-22.63q16-10.29,31.42-20.24,4.39,17.85,8.93,36.3C1823.37,1039.42,1827.23,1038.7,1797.08,1044.77Z"/>
    <path class="b" d="M1563.41,817.53c5.23-30.31,4.62-26.43,5.84-26.16l36.53,7.91-19.35,32C1585.78,832.33,1589,834.55,1563.41,817.53Z"/>
    <path class="b" d="M1558.86,491.61c25.13-17.73,22-15.42,22.63-14.37l20.24,31.43-36.3,8.93C1564.21,517.9,1564.94,521.76,1558.86,491.61Z"/>
    <path class="b" d="M1786.1,257.94c30.31,5.23,26.43,4.61,26.16,5.84q-4,18.57-7.91,36.53l-32-19.36C1771.3,280.31,1769.08,283.55,1786.1,257.94Z"/>
    <path class="b" d="M2112,253.39c17.73,25.12,15.42,21.95,14.37,22.62q-16,10.31-31.43,20.24-4.38-17.83-8.92-36.3C2085.74,258.74,2081.88,259.46,2112,253.39Z"/>
    <path class="b" d="M2265.45,515.19c83,14.58,71.88,12.94,71.73,13.81-15.23,87.12-13.38,79.77-15.08,79.4-66.42-14.39-126.82-27.46-181.73-39.34L2236.65,410c.9-1.49-5.71-5.19,68,43.61C2305.44,454.08,2311.89,444.86,2265.45,515.19Z"/>
    <path class="b" d="M2269.07,774.24c48.38,69,41.67,60,40.95,60.49-72.37,50.83-65.86,46.94-66.8,45.48L2142.53,723.89l180.56-44.4c1.69-.42-.36-7.71,17.29,78.94C2340.55,759.3,2351.63,757.35,2269.07,774.24Z"/>
    <path class="b" d="M2088.44,960c-14.58,83-12.93,71.87-13.81,71.72-87.11-15.22-79.77-13.37-79.4-15.07,14.39-66.43,27.46-126.83,39.35-181.74l159.07,96.29c1.49.9,5.19-5.71-43.6,68C2149.56,1000,2158.77,1006.42,2088.44,960Z"/>
    <path class="b" d="M1829.39,963.59c-69,48.39-60,41.68-60.48,40.95-50.84-72.36-47-65.86-45.49-66.8l156.33-100.69c13.41,54.56,28.16,114.57,44.39,180.57.42,1.69,7.71-.36-78.94,17.28C1844.33,1035.08,1846.28,1046.16,1829.39,963.59Z"/>
    <path class="b" d="M1643.65,783c-83-14.58-71.87-12.94-71.72-13.81,15.22-87.12,13.37-79.77,15.07-79.4l181.74,39.34c-29.1,48.06-61.1,100.93-96.29,159.08-.9,1.48,5.71,5.19-68-43.61C1603.67,844.08,1597.21,853.3,1643.65,783Z"/>
    <path class="b" d="M1640,523.91c-48.39-69-41.68-60-41-60.48,72.36-50.83,65.86-46.95,66.8-45.48,36.8,57.14,70.26,109.09,100.69,156.32L1586,618.67c-1.69.42.37,7.71-17.28-78.95C1568.55,538.85,1557.47,540.81,1640,523.91Z"/>
    <path class="b" d="M1820.66,338.18c14.58-83,12.94-71.88,13.81-71.72,87.12,15.22,79.77,13.37,79.4,15.07-14.38,66.43-27.46,126.82-39.34,181.73L1715.46,367c-1.49-.9-5.2,5.71,43.6-68.05C1759.55,298.19,1750.33,291.74,1820.66,338.18Z"/>
    <path class="b" d="M2079.72,334.56c69-48.38,60-41.67,60.48-40.94,50.84,72.36,47,65.86,45.49,66.8L2029.36,461.1c-13.41-54.55-28.17-114.56-44.4-180.56-.41-1.69-7.71.36,78.95-17.29C2064.78,263.08,2062.83,252,2079.72,334.56Z"/>
    <path class="c" d="M2018.71,648.18l-41.32-8.94,21.9-36.16L1963.75,626q-4.89-19.87-10.09-41.06-4.62,21.33-8.94,41.32l-36.17-21.9,22.9,35.55L1890.39,650l41.33,8.94-21.9,36.17,35.54-22.9q4.88,19.88,10.09,41.06,4.62-21.33,8.94-41.32l36.16,21.89q-11.82-18.34-22.89-35.54Zm73.79-58.51c249.08,43.46,227.14,39.71,226.92,40.94q-1.24,7.11-2.34,13.41l2.71,13.34c.25,1.22,22.09-3.14-225.69,47.25C2239.5,911.47,2226.64,893.3,2225.61,894l-11.13,7.83q-3.54,5.32-7.52,11.35c-.69,1,17.84,13.4-193-126.18-43.46,249.09-39.71,227.14-40.94,226.93l-13.41-2.34-13.34,2.71c-1.22.25,3.14,22.08-47.25-225.69C1692.16,934,1710.33,921.16,1709.61,920.14L1701.78,909l-11.35-7.51c-1-.69-13.39,17.83,126.18-193-249.09-43.46-227.14-39.71-226.93-40.94.83-4.75,1.61-9.21,2.34-13.41q-1.26-6.27-2.71-13.34c-.25-1.23-22.08,3.14,225.69-47.26-145.4-206.85-132.53-188.68-131.51-189.4l11.14-7.83c2.35-3.56,4.86-7.33,7.51-11.35.69-1-17.83-13.4,193,126.17,43.45-249.08,39.7-227.13,40.93-226.92l13.41,2.34,13.35-2.71c1.22-.25-3.14-22.09,47.25,225.69C2217,364.13,2198.78,377,2199.49,378l7.83,11.13,11.35,7.52C2219.71,397.36,2232.07,378.84,2092.5,589.67Z"/>
  </g>
</svg>
