<?xml version="1.0" standalone="no"?><!DOCTYPE svg PUBLIC "-//W3C//DTD SVG 1.1//EN" "http://www.w3.org/Graphics/SVG/1.1/DTD/svg11.dtd"><svg width="100%" height="100%" viewBox="0 0 659 369" version="1.1" xmlns="http://www.w3.org/2000/svg" xmlns:xlink="http://www.w3.org/1999/xlink" xml:space="preserve" style="fill-rule:evenodd;clip-rule:evenodd;stroke-linecap:round;stroke-linejoin:round;stroke-miterlimit:1.41421;"><g id="venn"><g><circle cx="262.828" cy="250.753" r="115.311" style="fill:none;stroke-width:3px;stroke:#aaa;"/><circle cx="421.027" cy="250.753" r="115.311" style="fill:none;stroke-width:3px;stroke:#aaa;"/></g><g id="bulb"><path d="M344.589,189.849c3.88,0.923 6.898,4.2 7.598,8.135c0.694,3.905 -1.304,6.62 -2.891,9.258c-1.732,2.866 -2.094,4.043 -2.372,5.775c-0.09,0.561 -0.458,0.911 -1.013,0.911c-2.463,0.006 -4.931,0.006 -7.393,0c-0.459,0 -0.881,-0.301 -0.936,-0.742c-0.277,-2.221 -1.37,-4.086 -2.54,-5.926c-0.96,-1.503 -3.169,-4.599 -3.066,-7.779c0.199,-6.379 6.077,-11.189 12.613,-9.632ZM334.873,202.033c0.175,0.387 0.537,0.598 0.971,0.568c0.393,-0.024 0.755,-0.272 0.833,-0.664c0.048,-0.241 0.036,-0.531 -0.048,-0.761c-0.827,-2.245 0.139,-5.099 2.788,-6.56c0.561,-0.307 0.742,-0.863 0.465,-1.369c-0.272,-0.495 -0.839,-0.652 -1.376,-0.357c-3.905,2.149 -4.865,6.44 -3.633,9.143Z" style="fill:#8f8f8f;fill-rule:nonzero;"/><path d="M340.461,220.446c-0.35,-0.199 -0.652,-0.434 -0.682,-0.923l-1.382,0c-0.398,-0.006 -0.646,-0.217 -0.634,-0.531c0.012,-0.308 0.242,-0.495 0.634,-0.495c0.163,0 7.568,-0.006 7.628,0c0.296,0.024 0.501,0.229 0.513,0.495c0.012,0.277 -0.205,0.513 -0.513,0.525c-0.344,0.018 -0.549,0.006 -1.496,0.006c-0.037,0.465 -0.32,0.724 -0.688,0.923c-1.129,0 -2.251,0 -3.38,0Z" style="fill:#8f8f8f;fill-rule:nonzero;"/><path d="M338.331,215.86c-0.278,0 -0.465,-0.115 -0.543,-0.387c-0.103,-0.356 0.175,-0.633 0.555,-0.633c2.54,-0.006 5.087,-0.006 7.628,-0.006c0.326,0 0.555,0.211 0.567,0.501c0.006,0.295 -0.229,0.519 -0.579,0.519c-2.028,0.012 -5.498,0.006 -7.628,0.006Z" style="fill:#8f8f8f;fill-rule:nonzero;"/><path d="M338.409,217.688c-0.398,0 -0.646,-0.199 -0.646,-0.513c0,-0.308 0.26,-0.513 0.652,-0.513c2.474,0 4.943,0 7.417,0c0.091,0 0.181,-0.006 0.272,0.012c0.271,0.055 0.452,0.284 0.434,0.537c-0.018,0.26 -0.217,0.465 -0.501,0.471c-0.688,0.012 -7.568,0.006 -7.628,0.006Z" style="fill:#8f8f8f;fill-rule:nonzero;"/></g><circle cx="341.927" cy="118.639" r="115.311" style="fill:none;stroke-width:3px;stroke:#aaa;"/><g transform="matrix(1,0,0,1,-414.159,-244.519)"><path d="M584.116,490.572l0,7.848c0,2.682 -1.728,4.122 -3.96,4.122c-2.232,0 -3.96,-1.44 -3.96,-4.122l0,-7.848l-0.864,0l0,7.848c0,3.186 2.106,4.932 4.824,4.932c2.718,0 4.806,-1.746 4.806,-4.932l0,-7.848l-0.846,0Z" style="fill:#000;fill-rule:nonzero;"/><path d="M593.53,496.908l0.81,0c-0.234,-1.998 -1.53,-2.916 -3.564,-2.916c-1.638,0 -3.258,0.612 -3.258,2.448c0,1.692 1.242,1.962 3.366,2.448c1.998,0.45 2.772,0.72 2.772,1.908c0,1.278 -1.188,1.818 -2.592,1.818c-1.926,0 -2.952,-0.9 -3.114,-2.538l-0.792,0c0.162,2.124 1.53,3.276 3.888,3.276c1.926,0 3.402,-0.864 3.402,-2.592c0,-1.764 -1.278,-2.088 -3.402,-2.592c-1.746,-0.414 -2.718,-0.558 -2.718,-1.764c0,-1.224 1.152,-1.692 2.43,-1.692c1.584,0 2.574,0.666 2.772,2.196Z" style="fill:#000;fill-rule:nonzero;"/><path d="M600.28,503.352c1.98,0 3.564,-1.08 4.032,-3.024l-0.918,0c-0.414,1.53 -1.692,2.286 -3.114,2.286c-1.98,0 -3.384,-1.476 -3.438,-3.744l0,-0.108l7.56,0l0,-0.18c0,-2.7 -1.692,-4.59 -4.14,-4.59c-2.484,0 -4.284,1.998 -4.284,4.698c0,2.754 1.71,4.662 4.302,4.662ZM596.86,498.042c0.198,-1.944 1.548,-3.33 3.402,-3.33c1.89,0 3.24,1.368 3.312,3.33l-6.714,0Z" style="fill:#000;fill-rule:nonzero;"/><path d="M607.534,496.854l0,-2.682l-0.828,0l0,9l0.828,0l0,-4.014c0,-3.132 1.674,-4.302 4.392,-4.176l0,-0.936c-2.106,0 -3.744,0.792 -4.392,2.808Z" style="fill:#000;fill-rule:nonzero;"/><path d="M627.136,491.31l0,-0.738l-8.586,0l0,12.6l8.586,0l0,-0.756l-7.74,0l0,-5.31l7.362,0l0,-0.756l-7.362,0l0,-5.04l7.74,0Z" style="fill:#000;fill-rule:nonzero;"/><path d="M636.64,503.172l-3.69,-4.572l3.654,-4.428l-1.044,0l-3.15,3.906l-3.132,-3.906l-1.044,0l3.654,4.428l-3.69,4.572l1.044,0l3.168,-4.014l3.186,4.014l1.044,0Z" style="fill:#000;fill-rule:nonzero;"/><path d="M638.368,506.772l0.828,0l-0.018,-5.796l0.018,0c0.486,1.512 1.872,2.376 3.456,2.376c2.592,0 4.248,-1.962 4.248,-4.68c0,-2.718 -1.656,-4.68 -4.248,-4.68c-1.566,0 -2.952,0.882 -3.456,2.466l-0.018,0l0.018,-2.286l-0.828,0l0,12.6ZM642.616,502.614c-1.908,0 -3.474,-1.476 -3.474,-3.798l0,-0.288c0,-2.358 1.548,-3.816 3.474,-3.816c2.142,0 3.474,1.674 3.474,3.96c0,2.286 -1.332,3.942 -3.474,3.942Z" style="fill:#000;fill-rule:nonzero;"/><path d="M652.822,503.352c1.98,0 3.564,-1.08 4.032,-3.024l-0.918,0c-0.414,1.53 -1.692,2.286 -3.114,2.286c-1.98,0 -3.384,-1.476 -3.438,-3.744l0,-0.108l7.56,0l0,-0.18c0,-2.7 -1.692,-4.59 -4.14,-4.59c-2.484,0 -4.284,1.998 -4.284,4.698c0,2.754 1.71,4.662 4.302,4.662ZM649.402,498.042c0.198,-1.944 1.548,-3.33 3.402,-3.33c1.89,0 3.24,1.368 3.312,3.33l-6.714,0Z" style="fill:#000;fill-rule:nonzero;"/><path d="M660.076,496.854l0,-2.682l-0.828,0l0,9l0.828,0l0,-4.014c0,-3.132 1.674,-4.302 4.392,-4.176l0,-0.936c-2.106,0 -3.744,0.792 -4.392,2.808Z" style="fill:#000;fill-rule:nonzero;"/><path d="M666.358,492.228l1.026,0l0,-1.656l-1.026,0l0,1.656ZM666.466,503.172l0.828,0l0,-9l-0.828,0l0,9Z" style="fill:#000;fill-rule:nonzero;"/><path d="M673.936,503.352c1.98,0 3.564,-1.08 4.032,-3.024l-0.918,0c-0.414,1.53 -1.692,2.286 -3.114,2.286c-1.98,0 -3.384,-1.476 -3.438,-3.744l0,-0.108l7.56,0l0,-0.18c0,-2.7 -1.692,-4.59 -4.14,-4.59c-2.484,0 -4.284,1.998 -4.284,4.698c0,2.754 1.71,4.662 4.302,4.662ZM670.516,498.042c0.198,-1.944 1.548,-3.33 3.402,-3.33c1.89,0 3.24,1.368 3.312,3.33l-6.714,0Z" style="fill:#000;fill-rule:nonzero;"/><path d="M684.592,493.992c-1.566,0 -2.862,0.828 -3.402,2.448l0,-2.268l-0.828,0l0,9l0.828,0l0,-4.77c0,-2.322 1.44,-3.672 3.33,-3.672c1.548,0 2.574,1.098 2.574,3.042l0,5.4l0.828,0l0,-5.4c0,-2.376 -1.26,-3.78 -3.33,-3.78Z" style="fill:#000;fill-rule:nonzero;"/><path d="M698.362,500.076l-0.828,0c-0.306,1.476 -1.332,2.538 -3.096,2.538c-2.142,0 -3.528,-1.656 -3.528,-3.942c0,-2.304 1.386,-3.96 3.528,-3.96c1.728,0 2.754,1.044 3.06,2.484l0.846,0c-0.324,-1.854 -1.71,-3.204 -3.906,-3.204c-2.61,0 -4.338,1.962 -4.338,4.68c0,2.7 1.728,4.68 4.338,4.68c2.232,0 3.618,-1.386 3.924,-3.276Z" style="fill:#000;fill-rule:nonzero;"/><path d="M704.104,503.352c1.98,0 3.564,-1.08 4.032,-3.024l-0.918,0c-0.414,1.53 -1.692,2.286 -3.114,2.286c-1.98,0 -3.384,-1.476 -3.438,-3.744l0,-0.108l7.56,0l0,-0.18c0,-2.7 -1.692,-4.59 -4.14,-4.59c-2.484,0 -4.284,1.998 -4.284,4.698c0,2.754 1.71,4.662 4.302,4.662ZM700.684,498.042c0.198,-1.944 1.548,-3.33 3.402,-3.33c1.89,0 3.24,1.368 3.312,3.33l-6.714,0Z" style="fill:#000;fill-rule:nonzero;"/><path d="M709.36,505.638l0.63,0l1.152,-4.05l-1.044,0l-0.738,4.05Z" style="fill:#000;fill-rule:nonzero;"/><path d="M616.3,524.736l-3.6,-6.084c1.8,-0.27 2.97,-1.566 2.97,-3.276c0,-1.872 -1.512,-3.24 -3.726,-3.24l-5.76,0l0,12.6l0.846,0l0,-6.03l4.806,0l3.456,6.03l1.008,0ZM607.03,512.874l4.914,0c1.71,0 2.862,1.044 2.862,2.502c0,1.494 -1.152,2.592 -2.862,2.592l-4.914,0l0,-5.094Z" style="fill:#000;fill-rule:nonzero;"/><path d="M621.916,524.916c1.98,0 3.564,-1.08 4.032,-3.024l-0.918,0c-0.414,1.53 -1.692,2.286 -3.114,2.286c-1.98,0 -3.384,-1.476 -3.438,-3.744l0,-0.108l7.56,0l0,-0.18c0,-2.7 -1.692,-4.59 -4.14,-4.59c-2.484,0 -4.284,1.998 -4.284,4.698c0,2.754 1.71,4.662 4.302,4.662ZM618.496,519.606c0.198,-1.944 1.548,-3.33 3.402,-3.33c1.89,0 3.24,1.368 3.312,3.33l-6.714,0Z" style="fill:#000;fill-rule:nonzero;"/><path d="M633.886,518.472l0.81,0c-0.234,-1.998 -1.53,-2.916 -3.564,-2.916c-1.638,0 -3.258,0.612 -3.258,2.448c0,1.692 1.242,1.962 3.366,2.448c1.998,0.45 2.772,0.72 2.772,1.908c0,1.278 -1.188,1.818 -2.592,1.818c-1.926,0 -2.952,-0.9 -3.114,-2.538l-0.792,0c0.162,2.124 1.53,3.276 3.888,3.276c1.926,0 3.402,-0.864 3.402,-2.592c0,-1.764 -1.278,-2.088 -3.402,-2.592c-1.746,-0.414 -2.718,-0.558 -2.718,-1.764c0,-1.224 1.152,-1.692 2.43,-1.692c1.584,0 2.574,0.666 2.772,2.196Z" style="fill:#000;fill-rule:nonzero;"/><path d="M640.636,524.916c1.98,0 3.564,-1.08 4.032,-3.024l-0.918,0c-0.414,1.53 -1.692,2.286 -3.114,2.286c-1.98,0 -3.384,-1.476 -3.438,-3.744l0,-0.108l7.56,0l0,-0.18c0,-2.7 -1.692,-4.59 -4.14,-4.59c-2.484,0 -4.284,1.998 -4.284,4.698c0,2.754 1.71,4.662 4.302,4.662ZM637.216,519.606c0.198,-1.944 1.548,-3.33 3.402,-3.33c1.89,0 3.24,1.368 3.312,3.33l-6.714,0Z" style="fill:#000;fill-rule:nonzero;"/><path d="M650.338,515.556c-2.034,0 -3.42,1.098 -3.564,2.916l0.9,0c0.126,-1.404 1.152,-2.196 2.664,-2.196c1.566,0 2.682,0.918 2.682,2.43l0,0.81l-1.872,0c-3.384,0 -4.698,1.152 -4.698,2.952c0,1.422 1.17,2.448 2.844,2.448c2.106,0 3.258,-1.044 3.69,-2.214l0.036,0l0,2.034l0.828,0l0,-6.03c0,-1.944 -1.44,-3.15 -3.51,-3.15ZM649.474,524.214c-1.278,0 -2.178,-0.738 -2.178,-1.764c0,-1.386 0.99,-2.304 3.852,-2.304l1.872,0l0,1.08c-0.108,1.764 -1.476,2.988 -3.546,2.988Z" style="fill:#000;fill-rule:nonzero;"/><path d="M657.538,518.418l0,-2.682l-0.828,0l0,9l0.828,0l0,-4.014c0,-3.132 1.674,-4.302 4.392,-4.176l0,-0.936c-2.106,0 -3.744,0.792 -4.392,2.808Z" style="fill:#000;fill-rule:nonzero;"/><path d="M670.912,521.64l-0.828,0c-0.306,1.476 -1.332,2.538 -3.096,2.538c-2.142,0 -3.528,-1.656 -3.528,-3.942c0,-2.304 1.386,-3.96 3.528,-3.96c1.728,0 2.754,1.044 3.06,2.484l0.846,0c-0.324,-1.854 -1.71,-3.204 -3.906,-3.204c-2.61,0 -4.338,1.962 -4.338,4.68c0,2.7 1.728,4.68 4.338,4.68c2.232,0 3.618,-1.386 3.924,-3.276Z" style="fill:#000;fill-rule:nonzero;"/><path d="M677.266,515.556c-1.566,0 -2.862,0.828 -3.402,2.448l0,-5.868l-0.828,0l0,12.6l0.828,0l0,-4.77c0,-2.322 1.44,-3.672 3.33,-3.672c1.548,0 2.574,1.098 2.574,3.042l0,5.4l0.828,0l0,-5.4c0,-2.376 -1.26,-3.78 -3.33,-3.78Z" style="fill:#000;fill-rule:nonzero;"/></g><g><path d="M398.744,172.239c35.134,-44.795 112.09,-64.597 171.384,-55.66" style="fill:none;stroke-width:1px;stroke:#5e5e5e;"/><path d="M572.728,114.139c1.375,0.345 2.211,1.742 1.866,3.117c-0.345,1.375 -1.742,2.212 -3.117,1.867c-1.375,-0.346 -2.212,-1.742 -1.867,-3.118c0.346,-1.375 1.742,-2.211 3.118,-1.866Z" style="fill:#5e5e5e;"/><path d="M399.37,169.747c1.375,0.345 2.211,1.742 1.866,3.117c-0.345,1.376 -1.742,2.212 -3.117,1.867c-1.376,-0.345 -2.212,-1.742 -1.867,-3.118c0.345,-1.375 1.742,-2.211 3.118,-1.866Z" style="fill:#5e5e5e;"/></g><g><path d="M285.973,172.239c-35.134,-44.795 -112.09,-64.597 -171.383,-55.66" style="fill:none;stroke-width:1px;stroke:#5e5e5e;"/><path d="M111.99,114.139c-1.376,0.345 -2.212,1.742 -1.867,3.117c0.345,1.375 1.742,2.212 3.118,1.867c1.375,-0.346 2.211,-1.742 1.866,-3.118c-0.345,-1.375 -1.742,-2.211 -3.117,-1.866Z" style="fill:#5e5e5e;"/><path d="M285.348,169.747c-1.375,0.345 -2.212,1.742 -1.867,3.117c0.346,1.376 1.742,2.212 3.118,1.867c1.375,-0.345 2.211,-1.742 1.866,-3.118c-0.345,-1.375 -1.742,-2.211 -3.117,-1.866Z" style="fill:#5e5e5e;"/></g><g transform="matrix(1,0,0,1,-304.565,-426.14)"><path d="M611.566,491.31l0,-0.738l-7.344,0l0,0.738l3.258,0l0,11.106l-3.258,0l0,0.756l7.344,0l0,-0.756l-3.222,0l0,-11.106l3.222,0Z" style="fill:#000;fill-rule:nonzero;"/><path d="M618.37,493.992c-1.566,0 -2.862,0.828 -3.402,2.448l0,-2.268l-0.828,0l0,9l0.828,0l0,-4.77c0,-2.322 1.44,-3.672 3.33,-3.672c1.548,0 2.574,1.098 2.574,3.042l0,5.4l0.828,0l0,-5.4c0,-2.376 -1.26,-3.78 -3.33,-3.78Z" style="fill:#000;fill-rule:nonzero;"/><path d="M629.548,494.892l0,-0.72l-3.672,0l0,-2.88l-0.828,0l0,1.764c0,0.9 -0.252,1.116 -1.296,1.116l-0.684,0l0,0.72l1.98,0l0,5.598c0,1.71 1.17,2.862 2.88,2.862c0.648,0 1.152,-0.144 1.62,-0.378l0,-0.792c-0.576,0.288 -1.08,0.414 -1.62,0.414c-1.26,0 -2.052,-0.81 -2.052,-2.106l0,-5.598l3.672,0Z" style="fill:#000;fill-rule:nonzero;"/><path d="M634.786,503.352c1.98,0 3.564,-1.08 4.032,-3.024l-0.918,0c-0.414,1.53 -1.692,2.286 -3.114,2.286c-1.98,0 -3.384,-1.476 -3.438,-3.744l0,-0.108l7.56,0l0,-0.18c0,-2.7 -1.692,-4.59 -4.14,-4.59c-2.484,0 -4.284,1.998 -4.284,4.698c0,2.754 1.71,4.662 4.302,4.662ZM631.366,498.042c0.198,-1.944 1.548,-3.33 3.402,-3.33c1.89,0 3.24,1.368 3.312,3.33l-6.714,0Z" style="fill:#000;fill-rule:nonzero;"/><path d="M642.04,496.854l0,-2.682l-0.828,0l0,9l0.828,0l0,-4.014c0,-3.132 1.674,-4.302 4.392,-4.176l0,-0.936c-2.106,0 -3.744,0.792 -4.392,2.808Z" style="fill:#000;fill-rule:nonzero;"/><path d="M652.408,491.112c0.522,0 1.044,0.126 1.602,0.414l0,-0.792c-0.45,-0.216 -0.954,-0.36 -1.602,-0.36c-1.728,0 -2.88,1.134 -2.88,2.844l0,0.954l-1.98,0l0,0.72l1.98,0l0,8.28l0.828,0l0,-8.28l3.654,0l0,-0.72l-3.654,0l0,-0.954c0,-1.296 0.792,-2.106 2.052,-2.106Z" style="fill:#000;fill-rule:nonzero;"/><path d="M658.708,493.992c-2.034,0 -3.42,1.098 -3.564,2.916l0.9,0c0.126,-1.404 1.152,-2.196 2.664,-2.196c1.566,0 2.682,0.918 2.682,2.43l0,0.81l-1.872,0c-3.384,0 -4.698,1.152 -4.698,2.952c0,1.422 1.17,2.448 2.844,2.448c2.106,0 3.258,-1.044 3.69,-2.214l0.036,0l0,2.034l0.828,0l0,-6.03c0,-1.944 -1.44,-3.15 -3.51,-3.15ZM657.844,502.65c-1.278,0 -2.178,-0.738 -2.178,-1.764c0,-1.386 0.99,-2.304 3.852,-2.304l1.872,0l0,1.08c-0.108,1.764 -1.476,2.988 -3.546,2.988Z" style="fill:#000;fill-rule:nonzero;"/><path d="M672.658,500.076l-0.828,0c-0.306,1.476 -1.332,2.538 -3.096,2.538c-2.142,0 -3.528,-1.656 -3.528,-3.942c0,-2.304 1.386,-3.96 3.528,-3.96c1.728,0 2.754,1.044 3.06,2.484l0.846,0c-0.324,-1.854 -1.71,-3.204 -3.906,-3.204c-2.61,0 -4.338,1.962 -4.338,4.68c0,2.7 1.728,4.68 4.338,4.68c2.232,0 3.618,-1.386 3.924,-3.276Z" style="fill:#000;fill-rule:nonzero;"/><path d="M678.4,503.352c1.98,0 3.564,-1.08 4.032,-3.024l-0.918,0c-0.414,1.53 -1.692,2.286 -3.114,2.286c-1.98,0 -3.384,-1.476 -3.438,-3.744l0,-0.108l7.56,0l0,-0.18c0,-2.7 -1.692,-4.59 -4.14,-4.59c-2.484,0 -4.284,1.998 -4.284,4.698c0,2.754 1.71,4.662 4.302,4.662ZM674.98,498.042c0.198,-1.944 1.548,-3.33 3.402,-3.33c1.89,0 3.24,1.368 3.312,3.33l-6.714,0Z" style="fill:#000;fill-rule:nonzero;"/><path d="M620.395,512.136l-3.69,0l0,12.6l3.69,0c3.942,0 6.354,-2.646 6.354,-6.3c0,-3.654 -2.412,-6.3 -6.354,-6.3ZM620.485,523.98l-2.934,0l0,-11.106l2.934,0c3.366,0 5.382,2.34 5.382,5.562c0,3.222 -2.016,5.544 -5.382,5.544Z" style="fill:#000;fill-rule:nonzero;"/><path d="M632.851,524.916c1.98,0 3.564,-1.08 4.032,-3.024l-0.918,0c-0.414,1.53 -1.692,2.286 -3.114,2.286c-1.98,0 -3.384,-1.476 -3.438,-3.744l0,-0.108l7.56,0l0,-0.18c0,-2.7 -1.692,-4.59 -4.14,-4.59c-2.484,0 -4.284,1.998 -4.284,4.698c0,2.754 1.71,4.662 4.302,4.662ZM629.431,519.606c0.198,-1.944 1.548,-3.33 3.402,-3.33c1.89,0 3.24,1.368 3.312,3.33l-6.714,0Z" style="fill:#000;fill-rule:nonzero;"/><path d="M644.821,518.472l0.81,0c-0.234,-1.998 -1.53,-2.916 -3.564,-2.916c-1.638,0 -3.258,0.612 -3.258,2.448c0,1.692 1.242,1.962 3.366,2.448c1.998,0.45 2.772,0.72 2.772,1.908c0,1.278 -1.188,1.818 -2.592,1.818c-1.926,0 -2.952,-0.9 -3.114,-2.538l-0.792,0c0.162,2.124 1.53,3.276 3.888,3.276c1.926,0 3.402,-0.864 3.402,-2.592c0,-1.764 -1.278,-2.088 -3.402,-2.592c-1.746,-0.414 -2.718,-0.558 -2.718,-1.764c0,-1.224 1.152,-1.692 2.43,-1.692c1.584,0 2.574,0.666 2.772,2.196Z" style="fill:#000;fill-rule:nonzero;"/><path d="M647.899,513.792l1.026,0l0,-1.656l-1.026,0l0,1.656ZM648.007,524.736l0.828,0l0,-9l-0.828,0l0,9Z" style="fill:#000;fill-rule:nonzero;"/><path d="M658.753,515.736l0,1.962l-0.018,0c-0.504,-1.35 -1.782,-2.142 -3.438,-2.142c-2.556,0 -4.248,1.818 -4.248,4.464c0,2.646 1.692,4.536 4.266,4.536c1.62,0 2.934,-0.756 3.42,-2.106l0.018,0l0,2.358c0,1.926 -1.386,2.988 -3.294,2.988c-1.818,0 -3.132,-1.062 -3.294,-2.574l-0.864,0c0.162,1.944 1.818,3.294 4.122,3.294c2.43,0 4.158,-1.422 4.158,-3.708l0,-9.072l-0.828,0ZM655.351,523.836c-2.124,0 -3.492,-1.584 -3.492,-3.816c0,-2.232 1.368,-3.744 3.492,-3.744c1.872,0 3.456,1.224 3.456,3.582l0,0.27c0,2.412 -1.602,3.708 -3.456,3.708Z" style="fill:#000;fill-rule:nonzero;"/><path d="M666.745,515.556c-1.566,0 -2.862,0.828 -3.402,2.448l0,-2.268l-0.828,0l0,9l0.828,0l0,-4.77c0,-2.322 1.44,-3.672 3.33,-3.672c1.548,0 2.574,1.098 2.574,3.042l0,5.4l0.828,0l0,-5.4c0,-2.376 -1.26,-3.78 -3.33,-3.78Z" style="fill:#000;fill-rule:nonzero;"/></g><g transform="matrix(1,0,0,1,-188.537,-244.519)"><path d="M623.536,499.338l-0.936,0c-0.504,2.034 -1.908,3.24 -4.302,3.24c-3.096,0 -5.022,-2.394 -5.022,-5.706c0,-3.33 1.926,-5.742 5.022,-5.742c2.448,0 3.87,1.26 4.338,3.348l0.936,0c-0.558,-2.556 -2.34,-4.104 -5.274,-4.104c-3.618,0 -5.922,2.736 -5.922,6.498c0,3.744 2.304,6.48 5.922,6.48c2.916,0 4.68,-1.512 5.238,-4.014Z" style="fill:#000;fill-rule:nonzero;"/><path d="M629.764,493.992c-2.628,0 -4.392,1.962 -4.392,4.68c0,2.7 1.764,4.68 4.392,4.68c2.61,0 4.374,-1.98 4.374,-4.68c0,-2.718 -1.764,-4.68 -4.374,-4.68ZM629.764,494.712c2.142,0 3.564,1.656 3.564,3.96c0,2.286 -1.422,3.942 -3.564,3.942c-2.16,0 -3.582,-1.656 -3.582,-3.942c0,-2.304 1.422,-3.96 3.582,-3.96Z" style="fill:#000;fill-rule:nonzero;"/><path d="M640.024,503.352c1.548,0 3.024,-0.9 3.528,-2.466l0.018,0l0,2.286l0.828,0l0,-12.6l-0.828,0l0,5.796l-0.018,0c-0.486,-1.53 -1.962,-2.376 -3.528,-2.376c-2.61,0 -4.266,1.962 -4.266,4.662c0,2.718 1.656,4.698 4.266,4.698ZM640.042,494.712c1.926,0 3.474,1.458 3.492,3.816l0,0.288c0,2.322 -1.566,3.798 -3.492,3.798c-2.142,0 -3.474,-1.656 -3.474,-3.96c0,-2.286 1.332,-3.942 3.474,-3.942Z" style="fill:#000;fill-rule:nonzero;"/><path d="M647.278,492.228l1.026,0l0,-1.656l-1.026,0l0,1.656ZM647.386,503.172l0.828,0l0,-9l-0.828,0l0,9Z" style="fill:#000;fill-rule:nonzero;"/><path d="M655.468,493.992c-1.566,0 -2.862,0.828 -3.402,2.448l0,-2.268l-0.828,0l0,9l0.828,0l0,-4.77c0,-2.322 1.44,-3.672 3.33,-3.672c1.548,0 2.574,1.098 2.574,3.042l0,5.4l0.828,0l0,-5.4c0,-2.376 -1.26,-3.78 -3.33,-3.78Z" style="fill:#000;fill-rule:nonzero;"/><path d="M668.554,494.172l0,1.962l-0.018,0c-0.504,-1.35 -1.782,-2.142 -3.438,-2.142c-2.556,0 -4.248,1.818 -4.248,4.464c0,2.646 1.692,4.536 4.266,4.536c1.62,0 2.934,-0.756 3.42,-2.106l0.018,0l0,2.358c0,1.926 -1.386,2.988 -3.294,2.988c-1.818,0 -3.132,-1.062 -3.294,-2.574l-0.864,0c0.162,1.944 1.818,3.294 4.122,3.294c2.43,0 4.158,-1.422 4.158,-3.708l0,-9.072l-0.828,0ZM665.152,502.272c-2.124,0 -3.492,-1.584 -3.492,-3.816c0,-2.232 1.368,-3.744 3.492,-3.744c1.872,0 3.456,1.224 3.456,3.582l0,0.27c0,2.412 -1.602,3.708 -3.456,3.708Z" style="fill:#000;fill-rule:nonzero;"/><path d="M671.776,505.638l0.63,0l1.152,-4.05l-1.044,0l-0.738,4.05Z" style="fill:#000;fill-rule:nonzero;"/><path d="M583.63,512.874l0,-0.738l-7.344,0l0,0.738l3.258,0l0,11.106l-3.258,0l0,0.756l7.344,0l0,-0.756l-3.222,0l0,-11.106l3.222,0Z" style="fill:#000;fill-rule:nonzero;"/><path d="M596.284,515.556c-1.494,0 -2.664,0.738 -3.168,2.25c-0.45,-1.476 -1.548,-2.25 -3.132,-2.25c-1.422,0 -2.466,0.702 -2.952,2.07l0,-1.89l-0.828,0l0,9l0.828,0l0,-5.04c0,-2.142 0.99,-3.42 2.88,-3.42c1.62,0 2.592,1.044 2.592,3.15l0,5.31l0.828,0l0,-5.04c0,-2.142 0.99,-3.42 2.88,-3.42c1.62,0 2.574,1.044 2.574,3.15l0,5.31l0.828,0l0,-5.346c0,-2.52 -1.26,-3.834 -3.33,-3.834Z" style="fill:#000;fill-rule:nonzero;"/><path d="M602.476,528.336l0.828,0l-0.018,-5.796l0.018,0c0.486,1.512 1.872,2.376 3.456,2.376c2.592,0 4.248,-1.962 4.248,-4.68c0,-2.718 -1.656,-4.68 -4.248,-4.68c-1.566,0 -2.952,0.882 -3.456,2.466l-0.018,0l0.018,-2.286l-0.828,0l0,12.6ZM606.724,524.178c-1.908,0 -3.474,-1.476 -3.474,-3.798l0,-0.288c0,-2.358 1.548,-3.816 3.474,-3.816c2.142,0 3.474,1.674 3.474,3.96c0,2.286 -1.332,3.942 -3.474,3.942Z" style="fill:#000;fill-rule:nonzero;"/><path d="M616.156,524.718l0,-0.756c-0.396,0.18 -0.684,0.216 -0.936,0.216c-0.702,0 -1.224,-0.594 -1.224,-1.44l0,-10.602l-0.828,0l0,10.638c0,1.242 0.774,2.142 1.98,2.142c0.288,0 0.648,-0.072 1.008,-0.198Z" style="fill:#000;fill-rule:nonzero;"/><path d="M621.304,524.916c1.98,0 3.564,-1.08 4.032,-3.024l-0.918,0c-0.414,1.53 -1.692,2.286 -3.114,2.286c-1.98,0 -3.384,-1.476 -3.438,-3.744l0,-0.108l7.56,0l0,-0.18c0,-2.7 -1.692,-4.59 -4.14,-4.59c-2.484,0 -4.284,1.998 -4.284,4.698c0,2.754 1.71,4.662 4.302,4.662ZM617.884,519.606c0.198,-1.944 1.548,-3.33 3.402,-3.33c1.89,0 3.24,1.368 3.312,3.33l-6.714,0Z" style="fill:#000;fill-rule:nonzero;"/><path d="M637.81,515.556c-1.494,0 -2.664,0.738 -3.168,2.25c-0.45,-1.476 -1.548,-2.25 -3.132,-2.25c-1.422,0 -2.466,0.702 -2.952,2.07l0,-1.89l-0.828,0l0,9l0.828,0l0,-5.04c0,-2.142 0.99,-3.42 2.88,-3.42c1.62,0 2.592,1.044 2.592,3.15l0,5.31l0.828,0l0,-5.04c0,-2.142 0.99,-3.42 2.88,-3.42c1.62,0 2.574,1.044 2.574,3.15l0,5.31l0.828,0l0,-5.346c0,-2.52 -1.26,-3.834 -3.33,-3.834Z" style="fill:#000;fill-rule:nonzero;"/><path d="M647.62,524.916c1.98,0 3.564,-1.08 4.032,-3.024l-0.918,0c-0.414,1.53 -1.692,2.286 -3.114,2.286c-1.98,0 -3.384,-1.476 -3.438,-3.744l0,-0.108l7.56,0l0,-0.18c0,-2.7 -1.692,-4.59 -4.14,-4.59c-2.484,0 -4.284,1.998 -4.284,4.698c0,2.754 1.71,4.662 4.302,4.662ZM644.2,519.606c0.198,-1.944 1.548,-3.33 3.402,-3.33c1.89,0 3.24,1.368 3.312,3.33l-6.714,0Z" style="fill:#000;fill-rule:nonzero;"/><path d="M658.276,515.556c-1.566,0 -2.862,0.828 -3.402,2.448l0,-2.268l-0.828,0l0,9l0.828,0l0,-4.77c0,-2.322 1.44,-3.672 3.33,-3.672c1.548,0 2.574,1.098 2.574,3.042l0,5.4l0.828,0l0,-5.4c0,-2.376 -1.26,-3.78 -3.33,-3.78Z" style="fill:#000;fill-rule:nonzero;"/><path d="M669.454,516.456l0,-0.72l-3.672,0l0,-2.88l-0.828,0l0,1.764c0,0.9 -0.252,1.116 -1.296,1.116l-0.684,0l0,0.72l1.98,0l0,5.598c0,1.71 1.17,2.862 2.88,2.862c0.648,0 1.152,-0.144 1.62,-0.378l0,-0.792c-0.576,0.288 -1.08,0.414 -1.62,0.414c-1.26,0 -2.052,-0.81 -2.052,-2.106l0,-5.598l3.672,0Z" style="fill:#000;fill-rule:nonzero;"/><path d="M674.71,515.556c-2.034,0 -3.42,1.098 -3.564,2.916l0.9,0c0.126,-1.404 1.152,-2.196 2.664,-2.196c1.566,0 2.682,0.918 2.682,2.43l0,0.81l-1.872,0c-3.384,0 -4.698,1.152 -4.698,2.952c0,1.422 1.17,2.448 2.844,2.448c2.106,0 3.258,-1.044 3.69,-2.214l0.036,0l0,2.034l0.828,0l0,-6.03c0,-1.944 -1.44,-3.15 -3.51,-3.15ZM673.846,524.214c-1.278,0 -2.178,-0.738 -2.178,-1.764c0,-1.386 0.99,-2.304 3.852,-2.304l1.872,0l0,1.08c-0.108,1.764 -1.476,2.988 -3.546,2.988Z" style="fill:#000;fill-rule:nonzero;"/><path d="M686.068,516.456l0,-0.72l-3.672,0l0,-2.88l-0.828,0l0,1.764c0,0.9 -0.252,1.116 -1.296,1.116l-0.684,0l0,0.72l1.98,0l0,5.598c0,1.71 1.17,2.862 2.88,2.862c0.648,0 1.152,-0.144 1.62,-0.378l0,-0.792c-0.576,0.288 -1.08,0.414 -1.62,0.414c-1.26,0 -2.052,-0.81 -2.052,-2.106l0,-5.598l3.672,0Z" style="fill:#000;fill-rule:nonzero;"/><path d="M687.994,513.792l1.026,0l0,-1.656l-1.026,0l0,1.656ZM688.102,524.736l0.828,0l0,-9l-0.828,0l0,9Z" style="fill:#000;fill-rule:nonzero;"/><path d="M695.662,515.556c-2.628,0 -4.392,1.962 -4.392,4.68c0,2.7 1.764,4.68 4.392,4.68c2.61,0 4.374,-1.98 4.374,-4.68c0,-2.718 -1.764,-4.68 -4.374,-4.68ZM695.662,516.276c2.142,0 3.564,1.656 3.564,3.96c0,2.286 -1.422,3.942 -3.564,3.942c-2.16,0 -3.582,-1.656 -3.582,-3.942c0,-2.304 1.422,-3.96 3.582,-3.96Z" style="fill:#000;fill-rule:nonzero;"/><path d="M706.57,515.556c-1.566,0 -2.862,0.828 -3.402,2.448l0,-2.268l-0.828,0l0,9l0.828,0l0,-4.77c0,-2.322 1.44,-3.672 3.33,-3.672c1.548,0 2.574,1.098 2.574,3.042l0,5.4l0.828,0l0,-5.4c0,-2.376 -1.26,-3.78 -3.33,-3.78Z" style="fill:#000;fill-rule:nonzero;"/></g><path d="M6.182,112.719l-5.436,0l0,12.6l0.846,0l0,-5.67l4.59,0c2.376,0 3.906,-1.422 3.906,-3.492c0,-1.908 -1.53,-3.438 -3.906,-3.438ZM6.182,118.893l-4.59,0l0,-5.436l4.59,0c1.89,0 3.042,1.206 3.042,2.7c0,1.566 -1.152,2.736 -3.042,2.736Z" style="fill:#000;fill-rule:nonzero;"/><path d="M13.094,119.001l0,-2.682l-0.828,0l0,9l0.828,0l0,-4.014c0,-3.132 1.674,-4.302 4.392,-4.176l0,-0.936c-2.106,0 -3.744,0.792 -4.392,2.808Z" style="fill:#000;fill-rule:nonzero;"/><path d="M22.598,116.139c-2.628,0 -4.392,1.962 -4.392,4.68c0,2.7 1.764,4.68 4.392,4.68c2.61,0 4.374,-1.98 4.374,-4.68c0,-2.718 -1.764,-4.68 -4.374,-4.68ZM22.598,116.859c2.142,0 3.564,1.656 3.564,3.96c0,2.286 -1.422,3.942 -3.564,3.942c-2.16,0 -3.582,-1.656 -3.582,-3.942c0,-2.304 1.422,-3.96 3.582,-3.96Z" style="fill:#000;fill-rule:nonzero;"/><path d="M34.388,117.039l0,-0.72l-3.672,0l0,-2.88l-0.828,0l0,1.764c0,0.9 -0.252,1.116 -1.296,1.116l-0.684,0l0,0.72l1.98,0l0,5.598c0,1.71 1.17,2.862 2.88,2.862c0.648,0 1.152,-0.144 1.62,-0.378l0,-0.792c-0.576,0.288 -1.08,0.414 -1.62,0.414c-1.26,0 -2.052,-0.81 -2.052,-2.106l0,-5.598l3.672,0Z" style="fill:#000;fill-rule:nonzero;"/><path d="M39.716,116.139c-2.628,0 -4.392,1.962 -4.392,4.68c0,2.7 1.764,4.68 4.392,4.68c2.61,0 4.374,-1.98 4.374,-4.68c0,-2.718 -1.764,-4.68 -4.374,-4.68ZM39.716,116.859c2.142,0 3.564,1.656 3.564,3.96c0,2.286 -1.422,3.942 -3.564,3.942c-2.16,0 -3.582,-1.656 -3.582,-3.942c0,-2.304 1.422,-3.96 3.582,-3.96Z" style="fill:#000;fill-rule:nonzero;"/><path d="M51.506,117.039l0,-0.72l-3.672,0l0,-2.88l-0.828,0l0,1.764c0,0.9 -0.252,1.116 -1.296,1.116l-0.684,0l0,0.72l1.98,0l0,5.598c0,1.71 1.17,2.862 2.88,2.862c0.648,0 1.152,-0.144 1.62,-0.378l0,-0.792c-0.576,0.288 -1.08,0.414 -1.62,0.414c-1.26,0 -2.052,-0.81 -2.052,-2.106l0,-5.598l3.672,0Z" style="fill:#000;fill-rule:nonzero;"/><path d="M60.758,116.319l-3.636,8.19l-3.744,-8.19l-0.972,0l4.284,9.144l-0.576,1.296c-0.54,1.224 -1.458,1.62 -2.34,1.62c-0.504,0 -1.08,-0.072 -1.782,-0.468l0,0.846c0.576,0.234 1.116,0.36 1.782,0.36c1.206,0 2.394,-0.594 3.042,-2.034l4.86,-10.764l-0.918,0Z" style="fill:#000;fill-rule:nonzero;"/><path d="M63.404,128.919l0.828,0l-0.018,-5.796l0.018,0c0.486,1.512 1.872,2.376 3.456,2.376c2.592,0 4.248,-1.962 4.248,-4.68c0,-2.718 -1.656,-4.68 -4.248,-4.68c-1.566,0 -2.952,0.882 -3.456,2.466l-0.018,0l0.018,-2.286l-0.828,0l0,12.6ZM67.652,124.761c-1.908,0 -3.474,-1.476 -3.474,-3.798l0,-0.288c0,-2.358 1.548,-3.816 3.474,-3.816c2.142,0 3.474,1.674 3.474,3.96c0,2.286 -1.332,3.942 -3.474,3.942Z" style="fill:#000;fill-rule:nonzero;"/><path d="M74.186,114.375l1.026,0l0,-1.656l-1.026,0l0,1.656ZM74.294,125.319l0.828,0l0,-9l-0.828,0l0,9Z" style="fill:#000;fill-rule:nonzero;"/><path d="M82.376,116.139c-1.566,0 -2.862,0.828 -3.402,2.448l0,-2.268l-0.828,0l0,9l0.828,0l0,-4.77c0,-2.322 1.44,-3.672 3.33,-3.672c1.548,0 2.574,1.098 2.574,3.042l0,5.4l0.828,0l0,-5.4c0,-2.376 -1.26,-3.78 -3.33,-3.78Z" style="fill:#000;fill-rule:nonzero;"/><path d="M95.462,116.319l0,1.962l-0.018,0c-0.504,-1.35 -1.782,-2.142 -3.438,-2.142c-2.556,0 -4.248,1.818 -4.248,4.464c0,2.646 1.692,4.536 4.266,4.536c1.62,0 2.934,-0.756 3.42,-2.106l0.018,0l0,2.358c0,1.926 -1.386,2.988 -3.294,2.988c-1.818,0 -3.132,-1.062 -3.294,-2.574l-0.864,0c0.162,1.944 1.818,3.294 4.122,3.294c2.43,0 4.158,-1.422 4.158,-3.708l0,-9.072l-0.828,0ZM92.06,124.419c-2.124,0 -3.492,-1.584 -3.492,-3.816c0,-2.232 1.368,-3.744 3.492,-3.744c1.872,0 3.456,1.224 3.456,3.582l0,0.27c0,2.412 -1.602,3.708 -3.456,3.708Z" style="fill:#000;fill-rule:nonzero;"/><g transform="matrix(1,0,0,1,-19.9659,-388.194)"><path d="M617.821,490.572l0,7.848c0,2.682 -1.728,4.122 -3.96,4.122c-2.232,0 -3.96,-1.44 -3.96,-4.122l0,-7.848l-0.864,0l0,7.848c0,3.186 2.106,4.932 4.824,4.932c2.718,0 4.806,-1.746 4.806,-4.932l0,-7.848l-0.846,0Z" style="fill:#000;fill-rule:nonzero;"/><path d="M627.235,496.908l0.81,0c-0.234,-1.998 -1.53,-2.916 -3.564,-2.916c-1.638,0 -3.258,0.612 -3.258,2.448c0,1.692 1.242,1.962 3.366,2.448c1.998,0.45 2.772,0.72 2.772,1.908c0,1.278 -1.188,1.818 -2.592,1.818c-1.926,0 -2.952,-0.9 -3.114,-2.538l-0.792,0c0.162,2.124 1.53,3.276 3.888,3.276c1.926,0 3.402,-0.864 3.402,-2.592c0,-1.764 -1.278,-2.088 -3.402,-2.592c-1.746,-0.414 -2.718,-0.558 -2.718,-1.764c0,-1.224 1.152,-1.692 2.43,-1.692c1.584,0 2.574,0.666 2.772,2.196Z" style="fill:#000;fill-rule:nonzero;"/><path d="M633.643,493.992c-2.034,0 -3.42,1.098 -3.564,2.916l0.9,0c0.126,-1.404 1.152,-2.196 2.664,-2.196c1.566,0 2.682,0.918 2.682,2.43l0,0.81l-1.872,0c-3.384,0 -4.698,1.152 -4.698,2.952c0,1.422 1.17,2.448 2.844,2.448c2.106,0 3.258,-1.044 3.69,-2.214l0.036,0l0,2.034l0.828,0l0,-6.03c0,-1.944 -1.44,-3.15 -3.51,-3.15ZM632.779,502.65c-1.278,0 -2.178,-0.738 -2.178,-1.764c0,-1.386 0.99,-2.304 3.852,-2.304l1.872,0l0,1.08c-0.108,1.764 -1.476,2.988 -3.546,2.988Z" style="fill:#000;fill-rule:nonzero;"/><path d="M644.299,503.352c2.592,0 4.248,-1.98 4.248,-4.698c0,-2.7 -1.656,-4.662 -4.248,-4.662c-1.584,0 -2.97,0.846 -3.456,2.376l-0.018,0l0.018,-5.796l-0.828,0l0,12.6l0.828,0l-0.018,-2.286l0.018,0c0.522,1.566 1.89,2.466 3.456,2.466ZM644.263,494.712c2.142,0 3.474,1.656 3.474,3.942c0,2.304 -1.332,3.96 -3.474,3.96c-1.926,0 -3.474,-1.476 -3.474,-3.798l0,-0.288c0,-2.358 1.566,-3.816 3.474,-3.816Z" style="fill:#000;fill-rule:nonzero;"/><path d="M650.797,492.228l1.026,0l0,-1.656l-1.026,0l0,1.656ZM650.905,503.172l0.828,0l0,-9l-0.828,0l0,9Z" style="fill:#000;fill-rule:nonzero;"/><path d="M657.601,503.154l0,-0.756c-0.396,0.18 -0.684,0.216 -0.936,0.216c-0.702,0 -1.224,-0.594 -1.224,-1.44l0,-10.602l-0.828,0l0,10.638c0,1.242 0.774,2.142 1.98,2.142c0.288,0 0.648,-0.072 1.008,-0.198Z" style="fill:#000;fill-rule:nonzero;"/><path d="M659.437,492.228l1.026,0l0,-1.656l-1.026,0l0,1.656ZM659.545,503.172l0.828,0l0,-9l-0.828,0l0,9Z" style="fill:#000;fill-rule:nonzero;"/><path d="M668.563,494.892l0,-0.72l-3.672,0l0,-2.88l-0.828,0l0,1.764c0,0.9 -0.252,1.116 -1.296,1.116l-0.684,0l0,0.72l1.98,0l0,5.598c0,1.71 1.17,2.862 2.88,2.862c0.648,0 1.152,-0.144 1.62,-0.378l0,-0.792c-0.576,0.288 -1.08,0.414 -1.62,0.414c-1.26,0 -2.052,-0.81 -2.052,-2.106l0,-5.598l3.672,0Z" style="fill:#000;fill-rule:nonzero;"/><path d="M677.815,494.172l-3.636,8.19l-3.744,-8.19l-0.972,0l4.284,9.144l-0.576,1.296c-0.54,1.224 -1.458,1.62 -2.34,1.62c-0.504,0 -1.08,-0.072 -1.782,-0.468l0,0.846c0.576,0.234 1.116,0.36 1.782,0.36c1.206,0 2.394,-0.594 3.042,-2.034l4.86,-10.764l-0.918,0Z" style="fill:#000;fill-rule:nonzero;"/><path d="M617.389,512.136l-9.648,0l0,0.738l4.392,0l0,11.862l0.864,0l0,-11.862l4.392,0l0,-0.738Z" style="fill:#000;fill-rule:nonzero;"/><path d="M621.277,524.916c1.98,0 3.564,-1.08 4.032,-3.024l-0.918,0c-0.414,1.53 -1.692,2.286 -3.114,2.286c-1.98,0 -3.384,-1.476 -3.438,-3.744l0,-0.108l7.56,0l0,-0.18c0,-2.7 -1.692,-4.59 -4.14,-4.59c-2.484,0 -4.284,1.998 -4.284,4.698c0,2.754 1.71,4.662 4.302,4.662ZM617.857,519.606c0.198,-1.944 1.548,-3.33 3.402,-3.33c1.89,0 3.24,1.368 3.312,3.33l-6.714,0Z" style="fill:#000;fill-rule:nonzero;"/><path d="M633.247,518.472l0.81,0c-0.234,-1.998 -1.53,-2.916 -3.564,-2.916c-1.638,0 -3.258,0.612 -3.258,2.448c0,1.692 1.242,1.962 3.366,2.448c1.998,0.45 2.772,0.72 2.772,1.908c0,1.278 -1.188,1.818 -2.592,1.818c-1.926,0 -2.952,-0.9 -3.114,-2.538l-0.792,0c0.162,2.124 1.53,3.276 3.888,3.276c1.926,0 3.402,-0.864 3.402,-2.592c0,-1.764 -1.278,-2.088 -3.402,-2.592c-1.746,-0.414 -2.718,-0.558 -2.718,-1.764c0,-1.224 1.152,-1.692 2.43,-1.692c1.584,0 2.574,0.666 2.772,2.196Z" style="fill:#000;fill-rule:nonzero;"/><path d="M641.545,516.456l0,-0.72l-3.672,0l0,-2.88l-0.828,0l0,1.764c0,0.9 -0.252,1.116 -1.296,1.116l-0.684,0l0,0.72l1.98,0l0,5.598c0,1.71 1.17,2.862 2.88,2.862c0.648,0 1.152,-0.144 1.62,-0.378l0,-0.792c-0.576,0.288 -1.08,0.414 -1.62,0.414c-1.26,0 -2.052,-0.81 -2.052,-2.106l0,-5.598l3.672,0Z" style="fill:#000;fill-rule:nonzero;"/><path d="M643.471,513.792l1.026,0l0,-1.656l-1.026,0l0,1.656ZM643.579,524.736l0.828,0l0,-9l-0.828,0l0,9Z" style="fill:#000;fill-rule:nonzero;"/><path d="M651.661,515.556c-1.566,0 -2.862,0.828 -3.402,2.448l0,-2.268l-0.828,0l0,9l0.828,0l0,-4.77c0,-2.322 1.44,-3.672 3.33,-3.672c1.548,0 2.574,1.098 2.574,3.042l0,5.4l0.828,0l0,-5.4c0,-2.376 -1.26,-3.78 -3.33,-3.78Z" style="fill:#000;fill-rule:nonzero;"/><path d="M664.747,515.736l0,1.962l-0.018,0c-0.504,-1.35 -1.782,-2.142 -3.438,-2.142c-2.556,0 -4.248,1.818 -4.248,4.464c0,2.646 1.692,4.536 4.266,4.536c1.62,0 2.934,-0.756 3.42,-2.106l0.018,0l0,2.358c0,1.926 -1.386,2.988 -3.294,2.988c-1.818,0 -3.132,-1.062 -3.294,-2.574l-0.864,0c0.162,1.944 1.818,3.294 4.122,3.294c2.43,0 4.158,-1.422 4.158,-3.708l0,-9.072l-0.828,0ZM661.345,523.836c-2.124,0 -3.492,-1.584 -3.492,-3.816c0,-2.232 1.368,-3.744 3.492,-3.744c1.872,0 3.456,1.224 3.456,3.582l0,0.27c0,2.412 -1.602,3.708 -3.456,3.708Z" style="fill:#000;fill-rule:nonzero;"/></g></g></svg>