<?xml version="1.0" standalone="no"?>
<!DOCTYPE svg PUBLIC "-//W3C//DTD SVG 1.1//EN" "http://www.w3.org/Graphics/SVG/1.1/DTD/svg11.dtd" >
<svg xmlns="http://www.w3.org/2000/svg">
<metadata></metadata>
<defs>
<font id="rationallight" horiz-adv-x="1116" >
<font-face units-per-em="2048" ascent="1638" descent="-410" />
<missing-glyph horiz-adv-x="532" />
<glyph unicode="&#xfb02;" horiz-adv-x="1390" d="M25 911v113h221v96q0 154 96 246t254 92q97 0 192 -39v-121q-101 41 -192 41q-104 0 -161.5 -57.5t-57.5 -161.5v-96h411v-113h-411v-911h-131v911h-221zM969 238v1196h131v-1190q0 -66 34 -108t87 -42q54 0 120 31v-117q-66 -26 -135 -26q-108 0 -172.5 71t-64.5 185z " />
<glyph horiz-adv-x="0" />
<glyph horiz-adv-x="682" />
<glyph unicode=" "  horiz-adv-x="532" />
<glyph unicode="&#x09;" horiz-adv-x="532" />
<glyph unicode="&#xa0;" horiz-adv-x="532" />
<glyph unicode="!" horiz-adv-x="512" d="M174 -6v201h164v-201h-164zM186 1434h138l2 -1016h-138z" />
<glyph unicode="&#x22;" horiz-adv-x="735" d="M201 965v469h135v-469h-135zM399 965v469h136v-469h-136z" />
<glyph unicode="#" horiz-adv-x="1458" d="M61 408v110h306l88 412h-289v110h311l86 394h123l-84 -394h363l84 394h125l-84 -394h307v-110h-332l-88 -412h317v-110h-342l-86 -408h-125l88 408h-362l-88 -408h-123l86 408h-281zM489 518h363l88 412h-360z" />
<glyph unicode="$" horiz-adv-x="1222" d="M104 549h136q21 -355 333 -393v532q-59 14 -97 24t-86 27t-78 34t-62 42.5t-49.5 56t-29 72.5t-11.5 92q0 158 110 252t303 105v245h105v-245q192 -14 302.5 -123.5t125.5 -306.5h-125q-12 145 -90 225t-213 92v-502q182 -44 255 -77q145 -67 177 -196q10 -41 10 -89 q0 -173 -115.5 -271t-326.5 -104v-236h-105v240q-202 19 -325.5 147t-143.5 357zM281 1036q0 -93 57.5 -139.5t234.5 -91.5v477q-136 -11 -214 -75.5t-78 -170.5zM678 150q151 6 233 74.5t82 191.5q0 107 -64.5 154.5t-250.5 93.5v-514z" />
<glyph unicode="%" horiz-adv-x="1775" d="M88 1104q0 154 99 254t251 100t251 -100t99 -254q0 -155 -99 -257t-251 -102t-251 102t-99 257zM190 1104q0 -115 70 -189.5t178 -74.5q106 0 176 74.5t70 189.5q0 112 -70 185t-176 73q-107 0 -177.5 -73t-70.5 -185zM313 33l1061 1425l76 -51l-1061 -1432zM989 336 q0 154 99 254t251 100t251.5 -100t99.5 -254q0 -156 -99.5 -258.5t-251.5 -102.5t-251 102.5t-99 258.5zM1092 336q0 -115 70 -189.5t177 -74.5t176.5 74.5t69.5 189.5q0 112 -69.5 185t-176.5 73t-177 -73t-70 -185z" />
<glyph unicode="&#x26;" horiz-adv-x="1452" d="M88 377q0 77 29.5 141t84.5 112t108.5 80.5t127.5 65.5q-98 96 -147 178.5t-49 178.5q0 141 100.5 231t265.5 90q160 0 263.5 -91.5t103.5 -232.5q0 -119 -78.5 -212t-251.5 -179l383 -354q68 139 68 328h125q0 -230 -101 -414l322 -299h-168l-217 203 q-88 -107 -210 -165t-269 -58q-136 0 -247.5 49.5t-177 140.5t-65.5 207zM225 373q0 -120 99 -197.5t254 -77.5q122 0 221.5 48.5t167.5 138.5l-437 403q-49 -21 -82.5 -37t-79.5 -46t-74 -60.5t-48.5 -75.5t-20.5 -96zM369 1133q0 -81 47.5 -153t134.5 -155 q151 70 226 142.5t75 165.5q0 91 -69.5 153t-174.5 62q-108 0 -173.5 -61t-65.5 -154z" />
<glyph unicode="'" horiz-adv-x="411" d="M139 965v469h135v-469h-135z" />
<glyph unicode="(" horiz-adv-x="679" d="M113 717q0 138 23.5 262.5t69.5 233.5t96.5 197t121.5 187h143q-72 -93 -127 -184t-102.5 -200.5t-72.5 -235t-25 -260.5q0 -263 92 -516t235 -437h-143q-139 194 -225 440t-86 513z" />
<glyph unicode=")" horiz-adv-x="679" d="M113 -236q142 185 234.5 438t92.5 515q0 135 -25.5 260.5t-73 235.5t-102 200.5t-126.5 183.5h143q71 -99 121.5 -187t96.5 -197t69.5 -233.5t23.5 -262.5q0 -267 -86 -513t-225 -440h-143z" />
<glyph unicode="*" horiz-adv-x="847" d="M88 1212l29 113l260 -84l-10 281h114l-10 -279l262 82l29 -113l-248 -57l172 -223l-96 -68l-166 250l-166 -250l-96 68l172 223z" />
<glyph unicode="+" horiz-adv-x="1286" d="M160 639v119h422v436h123v-436h423v-119h-423v-438h-123v438h-422z" />
<glyph unicode="," horiz-adv-x="514" d="M94 -274l80 469h166l-145 -469h-101z" />
<glyph unicode="-" horiz-adv-x="880" d="M143 510v115h594v-115h-594z" />
<glyph unicode="." horiz-adv-x="495" d="M166 -6v201h164v-201h-164z" />
<glyph unicode="/" horiz-adv-x="860" d="M102 0l527 1434h129l-527 -1434h-129z" />
<glyph unicode="0" horiz-adv-x="1351" d="M104 717q0 340 156.5 540.5t415.5 200.5q260 0 415.5 -200.5t155.5 -540.5t-155.5 -541t-415.5 -201q-259 0 -415.5 201t-156.5 541zM248 717q0 -285 117 -453t311 -168q195 0 312.5 168.5t117.5 452.5t-118 453t-312 169t-311 -168.5t-117 -453.5z" />
<glyph unicode="1" horiz-adv-x="892" d="M53 1118v142l522 174v-2l3 2h63v-1434h-135v1303z" />
<glyph unicode="2" horiz-adv-x="1157" d="M59 0v109h2l535 471q158 140 224.5 241t66.5 195q0 148 -94.5 236.5t-245.5 88.5q-154 0 -245.5 -87t-98.5 -242h-140q12 209 140.5 327.5t343.5 118.5q212 0 341.5 -119t129.5 -319q0 -123 -78.5 -241.5t-257.5 -278.5l-436 -383h801v-117h-988z" />
<glyph unicode="3" horiz-adv-x="1202" d="M82 424h139q7 -150 111 -236t276 -86q149 0 245.5 80t96.5 203q0 139 -102.5 217t-280.5 78h-112v115h112q153 0 245.5 72t92.5 188q0 132 -84.5 208t-230.5 76q-161 0 -249 -84t-91 -235h-141q13 213 138.5 325.5t340.5 112.5q204 0 327 -108t123 -289 q0 -116 -69.5 -200.5t-194.5 -119.5q148 -32 228.5 -126t80.5 -236q0 -172 -135 -284.5t-342 -112.5q-229 0 -368 117.5t-156 324.5z" />
<glyph unicode="4" horiz-adv-x="1273" d="M76 397q341 521 459 1037h139q-103 -486 -436 -992h612v140l2 442h133v-582h215v-108h-215v-334h-135v334h-758z" />
<glyph unicode="5" horiz-adv-x="1263" d="M111 426h133q19 -148 127.5 -237t265.5 -89q163 0 269 101.5t106 261.5q0 159 -109 260.5t-276 101.5q-113 0 -207.5 -50t-147.5 -130l-112 41l41 748h889v-117h-773l-30 -531q57 69 153 113.5t207 44.5q140 0 254.5 -61t180 -172t65.5 -250q0 -212 -144 -345.5 t-366 -133.5q-136 0 -250 52.5t-188 154.5t-88 237z" />
<glyph unicode="6" horiz-adv-x="1290" d="M123 692q0 184 42 330t117 241t178.5 145t227.5 50q80 0 153 -20.5t139 -63.5t115.5 -118t71.5 -175h-147q-14 71 -47.5 123t-79.5 80.5t-95 41.5t-104 13q-102 0 -184.5 -44.5t-143 -131.5t-91.5 -225t-27 -317q44 143 161.5 225t280.5 82q215 0 353.5 -134.5 t138.5 -338.5q0 -209 -142 -341t-366 -132q-265 0 -408 188t-143 522zM299 467q0 -154 108 -259.5t273 -105.5q161 0 265 99.5t104 253.5q0 155 -103.5 254.5t-269.5 99.5q-163 0 -270 -95t-107 -247z" />
<glyph unicode="7" horiz-adv-x="1146" d="M59 1317v117h1049v-109q-286 -291 -431 -627t-153 -698h-149v18q8 352 157 683t437 616h-910z" />
<glyph unicode="8" horiz-adv-x="1284" d="M115 393q0 128 89.5 227.5t237.5 137.5q-125 37 -198.5 122t-73.5 199q0 160 134.5 269.5t336.5 109.5t336.5 -109.5t134.5 -269.5q0 -114 -73.5 -199t-198.5 -122q149 -38 238 -137t89 -228q0 -176 -149 -293.5t-377 -117.5q-226 0 -376 118t-150 293zM258 399 q0 -131 107.5 -214t275.5 -83q169 0 277 82.5t108 214.5q0 130 -110 213.5t-275 83.5q-164 0 -273.5 -83.5t-109.5 -213.5zM305 1079q0 -118 95.5 -195t240.5 -77t241.5 77t96.5 195q0 115 -94.5 187.5t-243.5 72.5t-242.5 -72.5t-93.5 -187.5z" />
<glyph unicode="9" horiz-adv-x="1290" d="M109 981q0 208 142 342.5t365 134.5q260 0 408 -194q143 -188 143 -523q0 -368 -144.5 -563.5t-399.5 -195.5q-193 0 -329 102t-173 293h149q25 -135 120.5 -206t225.5 -71q209 0 321 178t105 535q-44 -143 -162 -225t-280 -82q-215 0 -353 135t-138 340zM242 979 q0 -155 103 -254.5t269 -99.5q163 0 270 95t107 247q0 155 -108 262.5t-273 107.5q-161 0 -264.5 -101t-103.5 -257z" />
<glyph unicode=":" horiz-adv-x="495" d="M166 -6v201h164v-201h-164zM166 823v201h164v-201h-164z" />
<glyph unicode=";" horiz-adv-x="516" d="M94 -274l80 485h166l-145 -485h-101zM184 823v201h164v-201h-164z" />
<glyph unicode="&#x3c;" horiz-adv-x="1224" d="M129 639v117v2l963 430v-150l-822 -338l822 -327v-150z" />
<glyph unicode="=" horiz-adv-x="1296" d="M160 442v109h979v-109h-979zM160 858v109h979v-109h-979z" />
<glyph unicode="&#x3e;" horiz-adv-x="1224" d="M133 223v150l821 325l-821 340v150l965 -430v-117v-2z" />
<glyph unicode="?" horiz-adv-x="1087" d="M61 1034q7 195 134 309.5t333 114.5q190 0 313.5 -111t123.5 -280q0 -110 -41.5 -190.5t-116.5 -134t-199 -101.5l-33 -12v-211h-126v278l116 52q148 59 211.5 132t63.5 187q0 121 -87.5 200t-222.5 79q-147 0 -238 -84.5t-99 -227.5h-132zM426 -6v201h164v-201h-164z " />
<glyph unicode="@" horiz-adv-x="1968" d="M113 551q0 186 69.5 348t188.5 276.5t284 180t351 65.5q183 0 340 -58.5t268 -161t174 -248t63 -314.5q0 -224 -94.5 -365t-253.5 -141q-208 0 -248 201h-2q-35 -93 -121 -148t-194 -55q-165 0 -276 120.5t-111 301.5q0 180 111 298t282 118q96 0 176 -44.5t119 -121.5h2 l-2 147h117v-571q0 -71 38 -112.5t109 -41.5q116 0 177 113.5t61 298.5q0 199 -91.5 355.5t-259 244.5t-384.5 88q-216 0 -394.5 -99t-282.5 -277.5t-104 -399.5q0 -219 102 -394.5t284 -274.5t409 -99q191 0 360 73t293 189v-141q-288 -217 -651 -217q-195 0 -363.5 65 t-288.5 178.5t-188.5 275t-68.5 347.5zM676 553q0 -133 83 -222t202 -89q118 0 198 88t80 225v12q0 124 -79 210.5t-197 86.5q-125 0 -206 -88.5t-81 -222.5z" />
<glyph unicode="A" horiz-adv-x="1492" d="M61 0l625 1434h121l625 -1434h-148l-158 369h-759l-156 -369h-150zM418 485h657l-327 772z" />
<glyph unicode="B" horiz-adv-x="1400" d="M186 0v1434h605q200 0 317 -94.5t117 -254.5q0 -121 -69 -211t-189 -139q154 -33 239.5 -122t85.5 -226q0 -180 -132 -283.5t-361 -103.5h-613zM324 117h462q163 0 267 72.5t104 213.5q0 118 -92 193.5t-272 75.5h-469v-555zM324 788h413q174 0 262 76.5t88 194.5 q0 122 -83 190t-226 68h-454v-529z" />
<glyph unicode="C" horiz-adv-x="1513" d="M113 719q0 213 84 380.5t239.5 263t358.5 95.5q247 0 404 -128t202 -357h-146q-36 174 -153.5 270t-306.5 96q-244 0 -392.5 -174t-148.5 -446t148.5 -445.5t392.5 -173.5q183 0 299 91.5t153 257.5h152q-46 -221 -202 -344t-402 -123q-203 0 -358.5 95t-239.5 262 t-84 380z" />
<glyph unicode="D" horiz-adv-x="1468" d="M186 0v1434h437q221 0 388.5 -92.5t256 -254.5t88.5 -370t-88.5 -370t-256 -254.5t-388.5 -92.5h-437zM324 117h313q265 0 420 167t155 433t-155 433t-420 167h-313v-1200z" />
<glyph unicode="E" horiz-adv-x="1263" d="M186 0v1434h990v-117h-852v-529h804v-116h-804v-555h852v-117h-990z" />
<glyph unicode="F" horiz-adv-x="1257" d="M186 0v1434h990v-117h-852v-529h806v-116h-806v-672h-138z" />
<glyph unicode="G" horiz-adv-x="1581" d="M113 719q0 213 84.5 380.5t240.5 263t359 95.5q239 0 399 -126t215 -359h-147q-46 178 -166.5 272t-300.5 94q-162 0 -286 -80.5t-190.5 -221t-66.5 -318.5q0 -272 150.5 -445.5t400.5 -173.5q214 0 356 136.5t142 353.5v4h-498v119h618v-713h-120v260 q-65 -130 -192.5 -204t-305.5 -74q-207 0 -365.5 95t-242.5 262t-84 380z" />
<glyph unicode="H" horiz-adv-x="1478" d="M186 0v1434h138v-646h831v646h137v-1434h-137v672h-831v-672h-138z" />
<glyph unicode="I" horiz-adv-x="1097" d="M123 0v117h358v1200h-358v117h852v-117h-359v-1200h359v-117h-852z" />
<glyph unicode="J" horiz-adv-x="1155" d="M43 100v164q230 -155 444 -155q151 0 255 90t104 227v1008h135v-1008q0 -127 -64.5 -229t-177.5 -158.5t-252 -56.5q-251 0 -444 118z" />
<glyph unicode="K" horiz-adv-x="1478" d="M186 0v1434h138v-646h454l414 646h156l-449 -703l518 -731h-184l-451 672h-458v-672h-138z" />
<glyph unicode="L" horiz-adv-x="1212" d="M186 0v1434h138v-1317h782v-117h-840h-80z" />
<glyph unicode="M" horiz-adv-x="1785" d="M186 0v1434h121l586 -719l586 719h118v-1434h-135v1198l-557 -672h-26l-555 672v-1198h-138z" />
<glyph unicode="N" horiz-adv-x="1503" d="M186 0v1434h129l867 -1217v1217h135v-1434h-129l-864 1204v-1204h-138z" />
<glyph unicode="O" horiz-adv-x="1607" d="M113 715q0 215 85 383.5t243 264t364 95.5q205 0 362.5 -95.5t242.5 -264t85 -383.5q0 -212 -85 -378.5t-242.5 -260.5t-362.5 -94q-154 0 -284 55t-219 151.5t-139 232.5t-50 294zM254 715q0 -177 67.5 -316.5t193.5 -219t290 -79.5q163 0 288.5 79.5t193 219 t67.5 316.5q0 180 -67.5 321.5t-193 222t-288.5 80.5q-248 0 -399.5 -175t-151.5 -449z" />
<glyph unicode="P" horiz-adv-x="1345" d="M186 0v1434h637q205 0 332 -115t127 -285q0 -182 -125 -292.5t-334 -110.5h-499v-631h-138zM324 748h499q147 0 233.5 82t86.5 204q0 120 -87 201.5t-233 81.5h-499v-569z" />
<glyph unicode="Q" horiz-adv-x="1607" d="M113 715q0 215 85 383.5t243 264t364 95.5q205 0 362.5 -95.5t242.5 -264t85 -383.5q0 -273 -141 -469l245 -205l-75 -92l-248 209q-189 -176 -471 -176q-154 0 -284 55t-219 151.5t-139 232.5t-50 294zM254 715q0 -177 67.5 -316.5t193.5 -219t290 -79.5q225 0 369 144 l-386 323l76 92l385 -325q105 158 105 381q0 180 -67.5 321.5t-193 222t-288.5 80.5q-248 0 -399.5 -175t-151.5 -449z" />
<glyph unicode="R" horiz-adv-x="1404" d="M186 0v1434h670q191 0 312.5 -105.5t121.5 -267.5q0 -147 -91.5 -251t-242.5 -132l402 -678h-162l-375 670h-497v-670h-138zM324 786h532q130 0 212.5 77.5t82.5 197.5q0 111 -82.5 183.5t-212.5 72.5h-532v-531z" />
<glyph unicode="S" horiz-adv-x="1329" d="M104 530h144q13 -209 133 -321.5t324 -112.5q172 0 277 75.5t105 209.5q0 51 -17.5 90t-47.5 67.5t-84 52t-113 40.5t-149 37q-61 14 -102 24t-91 24.5t-82.5 27.5t-69.5 31.5t-60 38.5t-46 46.5t-35.5 56.5t-20 68t-7.5 82q0 186 132 288.5t365 102.5 q242 0 382.5 -118.5t160.5 -356.5h-139q-33 358 -399 358q-171 0 -268 -71t-97 -199q0 -75 33 -121.5t120.5 -85t254.5 -76.5q49 -11 81 -18.5t80 -21t80 -26t72.5 -32t67.5 -40t55 -48.5t44.5 -60t27.5 -72.5t10 -86.5q0 -182 -141.5 -291.5t-381.5 -109.5 q-271 0 -428.5 145.5t-169.5 402.5z" />
<glyph unicode="T" horiz-adv-x="1171" d="M23 1317v117h1126v-117h-496v-1317h-135v1317h-495z" />
<glyph unicode="U" horiz-adv-x="1470" d="M174 541v893h135v-893q0 -202 117.5 -317t308.5 -115q190 0 307 115t117 317v893h137v-893q0 -260 -155.5 -409.5t-405.5 -149.5q-251 0 -406 149t-155 410z" />
<glyph unicode="V" horiz-adv-x="1492" d="M61 1434h150l537 -1256l534 1256h150l-625 -1434h-121z" />
<glyph unicode="W" horiz-adv-x="2166" d="M61 1434h140l395 -1237l434 1237h107l434 -1237l395 1237h139l-471 -1434h-123l-430 1231l-426 -1231h-123z" />
<glyph unicode="X" horiz-adv-x="1404" d="M61 0l562 719l-545 715h164l460 -621l463 621h164l-547 -715l561 -719h-163l-478 625l-477 -625h-164z" />
<glyph unicode="Y" horiz-adv-x="1396" d="M61 1434h156l481 -752l482 752h155l-567 -879v-555h-137v553z" />
<glyph unicode="Z" horiz-adv-x="1337" d="M119 0v111l936 1206h-936v117h1093v-109l-929 -1208h938v-117h-1102z" />
<glyph unicode="[" horiz-adv-x="700" d="M190 -236v1833h119h309v-110h-309v-1612h309v-111h-346h-82z" />
<glyph unicode="\" horiz-adv-x="860" d="M102 1434h129l527 -1434h-129z" />
<glyph unicode="]" horiz-adv-x="700" d="M82 -125h309v1612h-309v110h430v-1833h-121h-309v111z" />
<glyph unicode="^" horiz-adv-x="997" d="M100 897l340 582h115l342 -582h-129l-270 469l-269 -469h-129z" />
<glyph unicode="_" horiz-adv-x="1228" d="M82 -193h1065v-106h-1065v106z" />
<glyph unicode="`" horiz-adv-x="819" d="M291 1434h166l110 -283h-94z" />
<glyph unicode="a" d="M92 268q0 334 555 334h178v74q0 119 -75.5 186.5t-202.5 67.5q-117 0 -191.5 -60t-83.5 -163h-139q7 151 121.5 243t290.5 92q190 0 300.5 -97.5t110.5 -268.5v-676h-131v197h-4q-44 -91 -145.5 -153t-257.5 -62q-142 0 -234 80.5t-92 205.5zM227 268q0 -78 62.5 -129 t159.5 -51q161 0 266 89.5t110 219.5v109h-178q-116 0 -198.5 -16.5t-130 -49t-69.5 -74.5t-22 -98z" />
<glyph unicode="b" horiz-adv-x="1253" d="M172 0v1434h131l-2 -621h2q39 107 139 168t228 61q222 0 356.5 -147.5t134.5 -380.5q0 -234 -134.5 -383t-356.5 -149q-125 0 -224 65t-143 180h-2l2 -227h-131zM293 500q0 -180 105 -293t268 -113q167 0 266.5 117t99.5 303q0 184 -99.5 300t-266.5 116 q-163 0 -267.5 -112t-105.5 -294v-24z" />
<glyph unicode="c" d="M92 512q0 233 136 381.5t360 148.5q187 0 306 -101t148 -267h-135q-24 118 -105 187t-214 69q-168 0 -267.5 -116t-99.5 -302t99.5 -302t267.5 -116q137 0 220.5 74.5t106.5 198.5h132q-24 -173 -145 -279t-314 -106q-224 0 -360 148.5t-136 381.5z" />
<glyph unicode="d" horiz-adv-x="1261" d="M92 514q0 233 134.5 380.5t355.5 147.5q131 0 236.5 -61.5t144.5 -167.5h4v621h131v-1434h-131v227h-2q-43 -114 -149 -179.5t-234 -65.5q-221 0 -355.5 149t-134.5 383zM221 514q0 -185 100 -302.5t267 -117.5q162 0 266 113t104 293v24q0 181 -104.5 293.5 t-265.5 112.5q-167 0 -267 -116t-100 -300z" />
<glyph unicode="e" horiz-adv-x="1153" d="M92 510q0 231 139.5 381.5t352.5 150.5t345 -146.5t132 -379.5v-29h-832v-8q7 -174 105.5 -279.5t251.5 -105.5q111 0 198.5 58t122.5 174h146q-43 -165 -168.5 -254.5t-298.5 -89.5q-223 0 -358.5 146.5t-135.5 381.5zM233 602h695q-3 142 -100 235t-244 93 q-140 0 -235.5 -90.5t-115.5 -237.5z" />
<glyph unicode="f" horiz-adv-x="815" d="M25 911v113h221v96q0 154 96 246t254 92q97 0 192 -39v-121q-101 41 -192 41q-104 0 -161.5 -57.5t-57.5 -161.5v-96h411v-113h-411v-911h-131v911h-221z" />
<glyph unicode="g" horiz-adv-x="1232" d="M80 537q0 224 136 364.5t351 140.5q132 0 227.5 -54t141.5 -144h2v180h131v-1036q0 -187 -135 -302.5t-348 -115.5q-200 0 -332.5 104t-149.5 271h140q14 -116 109 -189t239 -73q153 0 249.5 81t96.5 224v227h-2q-42 -88 -138.5 -141.5t-224.5 -53.5q-219 0 -356 146 t-137 371zM207 539q0 -177 103 -291.5t268 -114.5q103 0 185.5 47.5t132 138.5t50.5 211v25q0 171 -104.5 273t-263.5 102q-167 0 -269 -108t-102 -283z" />
<glyph unicode="h" horiz-adv-x="1212" d="M172 0v1434h131v-639q46 122 141.5 184.5t223.5 62.5q184 0 284.5 -115.5t100.5 -318.5v-608h-131v608q0 150 -71.5 235t-195.5 85q-157 0 -254.5 -105t-97.5 -282v-541h-131z" />
<glyph unicode="i" horiz-adv-x="473" d="M154 1233v201h165v-201h-165zM170 0v1024h131v-1024h-131z" />
<glyph unicode="j" horiz-adv-x="489" d="M-178 -281q94 -34 184 -34q79 0 129.5 50.5t50.5 127.5v1161h131v-1155q0 -132 -85.5 -217.5t-217.5 -85.5q-86 0 -192 28v125zM170 1233v201h166v-201h-166z" />
<glyph unicode="k" horiz-adv-x="1134" d="M172 0v1434h131v-801h295l307 391h166l-369 -446l414 -578h-166l-354 516h-293v-516h-131z" />
<glyph unicode="l" horiz-adv-x="575" d="M154 238v1196h131v-1190q0 -66 34 -108t87 -42q54 0 120 31v-117q-66 -26 -135 -26q-108 0 -172.5 71t-64.5 185z" />
<glyph unicode="m" horiz-adv-x="1873" d="M172 0v1024h131v-190q84 208 320 208q129 0 220.5 -58t133.5 -171q44 116 135.5 172.5t216.5 56.5q180 0 281.5 -111t101.5 -321v-610h-131v602q0 163 -68.5 245.5t-195.5 82.5q-153 0 -230 -95t-77 -268v-567h-131v602q0 162 -71 245t-198 83q-153 0 -230 -95t-77 -268 v-567h-131z" />
<glyph unicode="n" horiz-adv-x="1212" d="M172 0v1024h131v-229q46 122 141.5 184.5t223.5 62.5q184 0 284.5 -115.5t100.5 -318.5v-608h-131v608q0 150 -71.5 235t-195.5 85q-157 0 -254.5 -105t-97.5 -282v-541h-131z" />
<glyph unicode="o" horiz-adv-x="1191" d="M92 512q0 232 139.5 381t364.5 149t364.5 -149t139.5 -381t-139.5 -381t-364.5 -149t-364.5 149t-139.5 381zM221 512q0 -185 103 -301.5t272 -116.5t272 116.5t103 301.5t-103 301.5t-272 116.5t-272 -116.5t-103 -301.5z" />
<glyph unicode="p" horiz-adv-x="1253" d="M172 -410v1434h131l-2 -225h2q44 114 143 178.5t224 64.5q222 0 356.5 -149t134.5 -383q0 -233 -134.5 -380.5t-356.5 -147.5q-128 0 -227 61t-140 168h-2l2 -621h-131zM293 500q1 -180 106 -293t267 -113q167 0 266.5 116t99.5 300q0 186 -99.5 303t-266.5 117 q-163 0 -268 -112.5t-105 -293.5v-24z" />
<glyph unicode="q" horiz-adv-x="1253" d="M94 510q0 234 134.5 383t355.5 149q126 0 225 -64.5t141 -178.5h2l-2 225h131v-1434h-131l2 621h-2q-39 -107 -138.5 -168t-227.5 -61q-221 0 -355.5 147.5t-134.5 380.5zM221 510q0 -184 100 -300t267 -116q162 0 267 113t106 293v24q0 182 -104.5 294t-268.5 112 q-167 0 -267 -117.5t-100 -302.5z" />
<glyph unicode="r" horiz-adv-x="839" d="M172 0v1024h131v-283q109 295 485 295v-147q-35 3 -67 3q-191 0 -295 -91q-122 -106 -123 -352v-449h-131z" />
<glyph unicode="s" horiz-adv-x="1003" d="M76 358h127q12 -128 93.5 -196t231.5 -68q120 0 193.5 44t73.5 138q0 30 -6 52.5t-24.5 40.5t-35.5 29.5t-58 24.5t-71 21t-94 23q-173 41 -226 62q-117 46 -149 132q-16 41 -16 95q0 77 31.5 134t86 89.5t121 47.5t144.5 15q367 0 413 -337h-129q-28 225 -290 225 q-109 0 -178.5 -43t-69.5 -123q0 -34 10.5 -58.5t31.5 -41.5t51 -29.5t70 -23.5t88 -23q8 -1 12 -2t10.5 -3t12.5 -3q175 -42 230 -65q115 -47 147 -136q15 -41 15 -96q0 -148 -108 -224.5t-286 -76.5q-205 0 -322.5 97.5t-129.5 278.5z" />
<glyph unicode="t" horiz-adv-x="831" d="M20 911v113h41q105 0 143 33t38 125v170h131v-328h409v-113h-409v-592q0 -104 57.5 -162.5t161.5 -58.5q94 0 190 43v-121q-90 -38 -190 -38q-160 0 -255 91t-95 246v592h-222z" />
<glyph unicode="u" horiz-adv-x="1208" d="M156 416v608h131v-608q0 -150 71 -235t193 -85q158 0 256 105.5t98 281.5v541h131v-1024h-131v215q-52 -115 -147 -174t-219 -59q-183 0 -283 115.5t-100 318.5z" />
<glyph unicode="v" horiz-adv-x="1107" d="M18 1024h146l391 -877l389 877h146l-474 -1024h-124z" />
<glyph unicode="w" horiz-adv-x="1693" d="M18 1024h146l297 -842l323 842h127l324 -842l295 842h145l-379 -1024h-122l-326 854l-328 -854h-123z" />
<glyph unicode="x" horiz-adv-x="1021" d="M18 0l410 518l-403 506h163l324 -424l324 424h163l-405 -506l412 -518h-164l-330 430l-330 -430h-164z" />
<glyph unicode="y" horiz-adv-x="1128" d="M-14 -254q113 -61 229 -61q78 0 141.5 41.5t100.5 126.5l53 122l-492 1049h154l403 -895l390 895h145l-543 -1221q-51 -116 -144 -176.5t-206 -60.5q-117 0 -231 49v131z" />
<glyph unicode="z" horiz-adv-x="1105" d="M121 0v104l692 807h-692v113h848v-104l-684 -807h700v-113h-864z" />
<glyph unicode="{" horiz-adv-x="804" d="M47 629v96v8h14q48 0 86.5 11.5t75 41t56.5 89.5t20 147v297q0 122 80.5 200t210.5 78h133v-110h-133q-73 0 -117.5 -47t-44.5 -121v-297q0 -161 -52 -239t-155 -103q103 -23 155 -101t52 -239v-297q0 -74 44.5 -121t117.5 -47h133v-111h-133q-130 0 -210.5 78.5 t-80.5 200.5v297q0 71 -14 124t-36 84t-54.5 50t-64 25t-69.5 6h-14z" />
<glyph unicode="|" horiz-adv-x="735" d="M313 -236v1833h111v-1833h-111z" />
<glyph unicode="}" horiz-adv-x="804" d="M82 -125h135q72 0 116 47t44 121v297q0 163 52.5 240t158.5 102q-106 23 -158.5 100t-52.5 240v297q0 74 -44 121t-116 47h-135v110h135q129 0 210 -78t81 -200v-297q0 -87 19.5 -147t56 -89.5t74.5 -41t87 -11.5h15v-96v-8h-15q-49 0 -87 -11t-74.5 -40.5t-56 -89.5 t-19.5 -148v-297q0 -122 -81.5 -200.5t-209.5 -78.5h-135v111z" />
<glyph unicode="~" horiz-adv-x="1124" d="M160 512q0 118 63.5 181t149.5 63q55 0 128 -30t141 -60.5t110 -30.5q47 0 72.5 32.5t25.5 92.5h117q0 -120 -63 -182t-150 -62q-44 0 -100.5 19t-100.5 41.5t-94 41.5t-82 19q-48 0 -75.5 -33t-27.5 -92h-114z" />
<glyph unicode="&#xa1;" horiz-adv-x="512" d="M174 1055v200h164v-200h-164zM186 -184l2 1015h138l-2 -1015h-138z" />
<glyph unicode="&#xa2;" horiz-adv-x="1157" d="M92 713q0 216 123.5 361.5t329.5 168.5v191h114v-189q164 -12 279 -110t147 -252h-131q-28 103 -107.5 170.5t-187.5 79.5v-637v-205q113 12 192 82t105 180h131q-29 -159 -145.5 -261t-282.5 -114v-178h-114v180q-206 23 -329.5 169t-123.5 364zM221 713q0 -167 87 -281 t237 -137v620v213q-150 -23 -237 -136t-87 -279z" />
<glyph unicode="&#xa3;" horiz-adv-x="1202" d="M47 635v104h180q-42 80 -65 146.5t-23 140.5q0 186 132 309t341 123q180 0 308 -95t163 -263h-135q-30 108 -120.5 174.5t-215.5 66.5q-151 0 -243.5 -91t-92.5 -232q0 -71 25 -135t72 -144h567v-104h-512q45 -92 45 -176q0 -64 -26.5 -122t-64.5 -102.5t-114 -117.5h836 v-117h-985l-17 98q21 23 69 74t66.5 73.5t45.5 62t37 75t10 76.5q0 80 -49 176h-234z" />
<glyph unicode="&#xa4;" horiz-adv-x="1361" d="M92 1229l78 78l197 -199q138 109 313 109q181 0 317 -111l197 197l76 -78l-197 -197q117 -142 117 -334q0 -176 -100 -313l176 -176l-78 -78l-170 172q-145 -129 -338 -129t-334 125l-172 -172l-78 78l176 176q-102 142 -102 317q0 190 119 338zM283 694 q0 -175 113.5 -297.5t283.5 -122.5t283.5 122.5t113.5 297.5q0 174 -113.5 296t-283.5 122t-283.5 -122t-113.5 -296z" />
<glyph unicode="&#xa5;" horiz-adv-x="1269" d="M27 1434h151l457 -768l457 768h151l-485 -787h354v-104h-416v-160h416v-102h-416v-281h-121v281h-417v102h417v160h-417v104h352z" />
<glyph unicode="&#xa6;" horiz-adv-x="735" d="M313 -236v730h111v-730h-111zM313 868v729h111v-729h-111z" />
<glyph unicode="&#xa7;" horiz-adv-x="1099" d="M125 645q0 99 46.5 170.5t125.5 114.5q-129 80 -129 227q0 135 105.5 218t277.5 83q170 0 284.5 -87.5t127.5 -248.5h-138q-4 106 -79.5 169t-192.5 63q-115 0 -181.5 -55t-66.5 -142q0 -37 12.5 -65t34.5 -48t61.5 -37t83.5 -29.5t111 -27.5q43 -10 74 -18t73 -22.5 t71 -31t60.5 -42t50.5 -55.5t31.5 -71.5t12.5 -91.5q0 -188 -170 -284q133 -80 133 -225q0 -137 -107 -220.5t-284 -83.5q-181 0 -297 87t-129 251h135q6 -109 84 -171t207 -62q116 0 185 55t69 141t-70.5 128t-240.5 79q-43 9 -74 17.5t-72.5 23t-70.5 31t-60 42t-50 56 t-31.5 72t-12.5 90.5zM250 657q0 -99 64.5 -147.5t209.5 -79.5q135 -30 201 -55q131 89 131 231q0 99 -65.5 149t-208.5 81q-124 22 -205 55q-127 -93 -127 -234z" />
<glyph unicode="&#xa8;" horiz-adv-x="819" d="M141 1233v201h164v-201h-164zM514 1233v201h164v-201h-164z" />
<glyph unicode="&#xa9;" horiz-adv-x="1728" d="M123 717q0 210 102 381t272 265.5t369 94.5q198 0 367.5 -94t271 -264t101.5 -379q0 -158 -60 -298t-161.5 -237.5t-237.5 -154t-285 -56.5q-148 0 -283.5 56t-236 153t-160 236t-59.5 297zM211 717q0 -140 53 -263.5t142 -209.5t208 -135.5t248 -49.5q131 0 251 50 t209.5 136t142.5 210t53 264t-53 263t-141.5 208.5t-208 134.5t-249.5 49t-250 -49.5t-209 -135t-142.5 -209t-53.5 -263.5zM467 721q0 187 110.5 306.5t294.5 119.5q143 0 243 -82t124 -213h-104q-19 90 -90 147.5t-173 57.5q-139 0 -222 -94t-83 -242q0 -150 83 -244 t222 -94q104 0 176 60.5t91 156.5h100q-19 -135 -119.5 -221t-247.5 -86q-184 0 -294.5 119.5t-110.5 308.5z" />
<glyph unicode="&#xaa;" horiz-adv-x="841" d="M61 848q0 120 101.5 186t310.5 66h141v76q0 84 -53 133t-145 49t-143.5 -42t-59.5 -118h-119q9 120 94.5 186t227.5 66q146 0 231.5 -75t85.5 -199v-531h-119v148h-4q-25 -66 -100.5 -115t-192.5 -49q-113 0 -184.5 61t-71.5 158zM184 856q0 -60 47 -97.5t119 -37.5 q109 0 184.5 66t79.5 176v59h-139q-291 0 -291 -166z" />
<glyph unicode="&#xab;" horiz-adv-x="1079" d="M119 535l274 354h160l-274 -354l274 -355h-160zM528 535l277 354h174l-291 -354l291 -355h-174z" />
<glyph unicode="&#xac;" horiz-adv-x="1296" d="M160 748v106h979v-106v-396h-111v396h-868z" />
<glyph unicode="&#xad;" horiz-adv-x="880" d="M143 510v115h594v-115h-594z" />
<glyph unicode="&#xae;" horiz-adv-x="1110" d="M63 975q0 139 67.5 252.5t180.5 176t246 62.5q132 0 244 -62t179 -174.5t67 -250.5q0 -140 -67 -254.5t-180 -178t-247 -63.5q-132 0 -244 63t-179 176.5t-67 252.5zM137 975q0 -119 57.5 -216t152.5 -150.5t206 -53.5q173 0 296.5 120.5t123.5 301.5q0 180 -122 300 t-294 120q-173 0 -296.5 -120.5t-123.5 -301.5zM358 727v516h74h182q72 0 118 -38.5t46 -98.5q0 -52 -32 -89.5t-87 -51.5l144 -238h-88l-125 229h-158v-229h-74zM432 1022h168q47 0 78 23.5t31 58.5q0 32 -27 54t-68 22h-182v-158z" />
<glyph unicode="&#xaf;" horiz-adv-x="819" d="M203 1237v113h413v-113h-413z" />
<glyph unicode="&#xb0;" horiz-adv-x="858" d="M109 1192q0 136 93 228.5t224 92.5t227.5 -91.5t96.5 -229.5q0 -136 -95.5 -228t-226.5 -92t-225 92t-94 228zM217 1194q0 -92 61 -155.5t150 -63.5q91 0 152 63.5t61 155.5q0 93 -61 155t-152 62q-90 0 -150.5 -62t-60.5 -155z" />
<glyph unicode="&#xb1;" horiz-adv-x="1286" d="M160 201v116h968v-116h-968zM160 748v116h422v330h123v-330h423v-116h-423v-332h-123v332h-422z" />
<glyph unicode="&#xb2;" horiz-adv-x="669" d="M29 756v63l297 246q83 70 121 125.5t38 120.5q0 71 -47.5 116.5t-120.5 45.5q-74 0 -122.5 -42.5t-55.5 -115.5h-102q11 115 85 180.5t195 65.5t199 -70.5t78 -179.5q0 -90 -55.5 -163t-155.5 -149l-199 -155h428v-88h-583z" />
<glyph unicode="&#xb3;" horiz-adv-x="708" d="M47 1010h105q6 -84 60 -131.5t144 -47.5q84 0 131.5 42t47.5 108q0 65 -49 101t-148 36h-55v80h55q84 0 132 37t48 100q0 64 -45.5 101t-118.5 37q-80 0 -130 -42.5t-54 -117.5h-100q6 116 82 182t200 66q122 0 196.5 -61t74.5 -161q0 -70 -39 -117t-107 -65 q78 -14 121 -61.5t43 -122.5q0 -103 -76.5 -166.5t-206.5 -63.5q-136 0 -220.5 70.5t-90.5 196.5z" />
<glyph unicode="&#xb4;" horiz-adv-x="819" d="M254 1151l111 283h165l-182 -283h-94z" />
<glyph unicode="&#xb6;" horiz-adv-x="1212" d="M61 1016q0 182 131.5 300t333.5 118h219v-1434h-112v614h-117q-198 0 -326.5 113.5t-128.5 288.5zM909 0v1434h113v-1434h-113z" />
<glyph unicode="&#xb7;" horiz-adv-x="481" d="M160 543v200h162v-200h-162z" />
<glyph unicode="&#xb8;" horiz-adv-x="819" d="M207 -270l100 12q4 -47 31.5 -73.5t69.5 -26.5q37 0 62.5 21t25.5 54q0 37 -30 59.5t-87 22.5h-60l-28 66l102 135h86l-84 -121h15q84 0 137 -46t53 -116q0 -71 -53 -117t-135 -46q-83 0 -140 49.5t-65 126.5z" />
<glyph unicode="&#xb9;" horiz-adv-x="561" d="M49 1329v113l293 100v2h90v-792h-108v698z" />
<glyph unicode="&#xba;" horiz-adv-x="935" d="M78 1040q0 181 107 295.5t284 114.5q176 0 282.5 -114.5t106.5 -295.5t-106.5 -296t-282.5 -115t-283.5 115t-107.5 296zM197 1040q0 -138 73.5 -225.5t198.5 -87.5q124 0 196 87.5t72 225.5q0 139 -72 225.5t-196 86.5q-125 0 -198.5 -86.5t-73.5 -225.5z" />
<glyph unicode="&#xbb;" horiz-adv-x="1079" d="M100 180l291 355l-291 354h176l277 -354l-277 -355h-176zM526 180l275 355l-275 354h160l277 -354l-277 -355h-160z" />
<glyph unicode="&#xbc;" horiz-adv-x="1658" d="M49 1221v112l293 103h90v-791h-108v696zM209 33l1061 1425l76 -51l-1061 -1432zM954 250q178 282 228 541h118q-56 -258 -219 -527h303v311h101v-311h129v-88h-129v-178h-101v178h-411z" />
<glyph unicode="&#xbd;" horiz-adv-x="1581" d="M49 1221v112l293 103h90v-791h-108v696zM172 33l1061 1425l78 -51l-1063 -1432zM940 0v66l297 245q83 68 121.5 123.5t38.5 120.5q0 71 -47.5 116.5t-120.5 45.5q-74 0 -122.5 -42t-55.5 -116h-103q11 114 85.5 180t195.5 66t198.5 -69.5t77.5 -178.5q0 -90 -55.5 -162.5 t-155.5 -148.5l-198 -156h428v-90h-584z" />
<glyph unicode="&#xbe;" horiz-adv-x="1738" d="M47 903h105q6 -85 60.5 -132.5t143.5 -47.5q84 0 131.5 41.5t47.5 107.5q0 65 -49 101.5t-148 36.5h-55v82h55q84 0 132 37t48 100q0 62 -45.5 98.5t-118.5 36.5q-80 0 -130 -42.5t-54 -117.5h-100q6 116 82 182t200 66q122 0 196.5 -60t74.5 -159q0 -70 -39 -117 t-107 -65q78 -15 121 -63.5t43 -123.5q0 -103 -76.5 -166t-206.5 -63q-136 0 -220.5 71t-90.5 197zM319 33l1061 1425l76 -51l-1061 -1432zM1034 250q178 282 228 541h118q-56 -258 -219 -527h303v311h101v-311h129v-88h-129v-178h-101v178h-411z" />
<glyph unicode="&#xbf;" horiz-adv-x="1087" d="M123 193q0 164 85 259t271 166l33 15v209h127v-279l-117 -51q-148 -59 -211 -132t-63 -187q0 -121 87.5 -200t221.5 -79q148 0 240 84.5t98 226.5h131q-7 -195 -133.5 -309.5t-333.5 -114.5q-190 0 -313 111.5t-123 280.5zM498 1065v201h164v-201h-164z" />
<glyph unicode="&#xc0;" horiz-adv-x="1492" d="M61 0l625 1434h121l625 -1434h-148l-158 369h-759l-156 -369h-150zM418 485h657l-327 772zM498 1819h180l110 -269h-108z" />
<glyph unicode="&#xc1;" horiz-adv-x="1492" d="M61 0l625 1434h121l625 -1434h-148l-158 369h-759l-156 -369h-150zM418 485h657l-327 772zM715 1550l110 269h181l-183 -269h-108z" />
<glyph unicode="&#xc2;" horiz-adv-x="1492" d="M61 0l625 1434h121l625 -1434h-148l-158 369h-759l-156 -369h-150zM418 485h657l-327 772zM455 1550l211 269h163l211 -269h-127l-165 166l-168 -166h-125z" />
<glyph unicode="&#xc3;" horiz-adv-x="1492" d="M61 0l625 1434h121l625 -1434h-148l-158 369h-759l-156 -369h-150zM418 485h657l-327 772zM451 1561q4 91 56 135.5t128 44.5q43 0 78 -13t54 -29t47.5 -29t59.5 -13q80 0 87 84h96q-1 -88 -50.5 -134t-129.5 -46q-42 0 -77 13t-55 29t-48.5 29t-59.5 13q-80 0 -86 -84 h-100z" />
<glyph unicode="&#xc4;" horiz-adv-x="1492" d="M61 0l625 1434h121l625 -1434h-148l-158 369h-759l-156 -369h-150zM418 485h657l-327 772zM459 1579v211h164v-211h-164zM872 1579v211h164v-211h-164z" />
<glyph unicode="&#xc5;" horiz-adv-x="1492" d="M61 0l625 1434h121l625 -1434h-148l-158 369h-759l-156 -369h-150zM418 485h657l-327 772zM547 1671q0 83 61 139t144 56t142.5 -56t59.5 -139t-59 -137.5t-143 -54.5t-144.5 54.5t-60.5 137.5zM635 1671q0 -51 33 -85t84 -34q50 0 83 34t33 85q0 52 -33 85.5t-83 33.5 q-51 0 -84 -33.5t-33 -85.5z" />
<glyph unicode="&#xc6;" horiz-adv-x="2289" d="M61 0l1092 1434h98h951v-117h-852v-529h804v-116h-804v-555h852v-117h-990v369h-708l-277 -369h-166zM592 485h620v826z" />
<glyph unicode="&#xc7;" horiz-adv-x="1513" d="M113 719q0 213 84 380.5t239.5 263t358.5 95.5q247 0 404 -128t202 -357h-146q-36 174 -153.5 270t-306.5 96q-244 0 -392.5 -174t-148.5 -446t148.5 -445.5t392.5 -173.5q183 0 299 91.5t153 257.5h152q-45 -210 -188 -332.5t-369 -134.5l-72 -103h14q84 0 137.5 -46 t53.5 -116q0 -71 -53.5 -117t-135.5 -46q-83 0 -139.5 49.5t-64.5 126.5l100 12q4 -47 31 -73.5t69 -26.5q37 0 62.5 21t25.5 54q0 37 -30 59.5t-86 22.5h-60l-28 66l88 117q-290 15 -465.5 219t-175.5 518z" />
<glyph unicode="&#xc8;" horiz-adv-x="1263" d="M186 0v1434h990v-117h-852v-529h804v-116h-804v-555h852v-117h-990zM504 1819h180l111 -269h-109z" />
<glyph unicode="&#xc9;" horiz-adv-x="1263" d="M186 0v1434h990v-117h-852v-529h804v-116h-804v-555h852v-117h-990zM631 1550l110 269h181l-183 -269h-108z" />
<glyph unicode="&#xca;" horiz-adv-x="1263" d="M186 0v1434h990v-117h-852v-529h804v-116h-804v-555h852v-117h-990zM399 1550l211 269h164l211 -269h-127l-166 166l-168 -166h-125z" />
<glyph unicode="&#xcb;" horiz-adv-x="1263" d="M186 0v1434h990v-117h-852v-529h804v-116h-804v-555h852v-117h-990zM403 1579v211h164v-211h-164zM817 1579v211h164v-211h-164z" />
<glyph unicode="&#xcc;" horiz-adv-x="1097" d="M123 0v117h358v1200h-358v117h852v-117h-359v-1200h359v-117h-852zM311 1819h181l110 -269h-108z" />
<glyph unicode="&#xcd;" horiz-adv-x="1097" d="M123 0v117h358v1200h-358v117h852v-117h-359v-1200h359v-117h-852zM502 1550l112 269h179l-181 -269h-110z" />
<glyph unicode="&#xce;" horiz-adv-x="1097" d="M123 0v117h358v1200h-358v117h852v-117h-359v-1200h359v-117h-852zM256 1550l211 269h164l211 -269h-127l-166 166l-168 -166h-125z" />
<glyph unicode="&#xcf;" horiz-adv-x="1097" d="M123 0v117h358v1200h-358v117h852v-117h-359v-1200h359v-117h-852zM260 1579v211h164v-211h-164zM674 1579v211h164v-211h-164z" />
<glyph unicode="&#xd0;" horiz-adv-x="1574" d="M63 676v110h160v648h436q221 0 388.5 -92.5t255.5 -254.5t88 -370t-88 -370t-255.5 -254.5t-388.5 -92.5h-436v676h-160zM358 117h316q265 0 420 167t155 433t-155 433t-420 167h-316v-531h471v-110h-471v-559z" />
<glyph unicode="&#xd1;" horiz-adv-x="1503" d="M186 0v1434h129l867 -1217v1217h135v-1434h-129l-864 1204v-1204h-138zM444 1561q4 91 56.5 135.5t128.5 44.5q43 0 78 -13t54 -29t47.5 -29t59.5 -13q79 0 86 84h97q-1 -88 -51 -134t-130 -46q-42 0 -77 13t-54.5 29t-48 29t-59.5 13q-80 0 -86 -84h-101z" />
<glyph unicode="&#xd2;" horiz-adv-x="1607" d="M113 715q0 215 85 383.5t243 264t364 95.5q205 0 362.5 -95.5t242.5 -264t85 -383.5q0 -212 -85 -378.5t-242.5 -260.5t-362.5 -94q-154 0 -284 55t-219 151.5t-139 232.5t-50 294zM254 715q0 -177 67.5 -316.5t193.5 -219t290 -79.5q163 0 288.5 79.5t193 219 t67.5 316.5q0 180 -67.5 321.5t-193 222t-288.5 80.5q-248 0 -399.5 -175t-151.5 -449zM586 1819h180l111 -269h-109z" />
<glyph unicode="&#xd3;" horiz-adv-x="1607" d="M113 715q0 215 85 383.5t243 264t364 95.5q205 0 362.5 -95.5t242.5 -264t85 -383.5q0 -212 -85 -378.5t-242.5 -260.5t-362.5 -94q-154 0 -284 55t-219 151.5t-139 232.5t-50 294zM254 715q0 -177 67.5 -316.5t193.5 -219t290 -79.5q163 0 288.5 79.5t193 219 t67.5 316.5q0 180 -67.5 321.5t-193 222t-288.5 80.5q-248 0 -399.5 -175t-151.5 -449zM772 1550l111 269h180l-182 -269h-109z" />
<glyph unicode="&#xd4;" horiz-adv-x="1607" d="M113 715q0 215 85 383.5t243 264t364 95.5q205 0 362.5 -95.5t242.5 -264t85 -383.5q0 -212 -85 -378.5t-242.5 -260.5t-362.5 -94q-154 0 -284 55t-219 151.5t-139 232.5t-50 294zM254 715q0 -177 67.5 -316.5t193.5 -219t290 -79.5q163 0 288.5 79.5t193 219 t67.5 316.5q0 180 -67.5 321.5t-193 222t-288.5 80.5q-248 0 -399.5 -175t-151.5 -449zM512 1550l211 269h164l211 -269h-127l-166 166l-168 -166h-125z" />
<glyph unicode="&#xd5;" horiz-adv-x="1607" d="M113 715q0 215 85 383.5t243 264t364 95.5q205 0 362.5 -95.5t242.5 -264t85 -383.5q0 -212 -85 -378.5t-242.5 -260.5t-362.5 -94q-154 0 -284 55t-219 151.5t-139 232.5t-50 294zM254 715q0 -177 67.5 -316.5t193.5 -219t290 -79.5q163 0 288.5 79.5t193 219 t67.5 316.5q0 180 -67.5 321.5t-193 222t-288.5 80.5q-248 0 -399.5 -175t-151.5 -449zM508 1561q4 91 56 135.5t128 44.5q43 0 78 -13t54.5 -29t48 -29t59.5 -13q79 0 86 84h96q-1 -88 -50.5 -134t-129.5 -46q-42 0 -77 13t-55 29t-48.5 29t-59.5 13q-80 0 -86 -84h-100z " />
<glyph unicode="&#xd6;" horiz-adv-x="1607" d="M113 715q0 215 85 383.5t243 264t364 95.5q205 0 362.5 -95.5t242.5 -264t85 -383.5q0 -212 -85 -378.5t-242.5 -260.5t-362.5 -94q-154 0 -284 55t-219 151.5t-139 232.5t-50 294zM254 715q0 -177 67.5 -316.5t193.5 -219t290 -79.5q163 0 288.5 79.5t193 219 t67.5 316.5q0 180 -67.5 321.5t-193 222t-288.5 80.5q-248 0 -399.5 -175t-151.5 -449zM516 1579v211h164v-211h-164zM930 1579v211h164v-211h-164z" />
<glyph unicode="&#xd7;" horiz-adv-x="1183" d="M160 348l350 350l-350 351l82 81l350 -348l350 348l82 -81l-350 -351l350 -350l-82 -82l-350 350l-350 -350z" />
<glyph unicode="&#xd8;" horiz-adv-x="1607" d="M113 715q0 215 85 383.5t243 264t364 95.5q254 0 436 -149l145 170l91 -78l-152 -176q170 -201 170 -510q0 -212 -85 -378.5t-242.5 -260.5t-362.5 -94q-248 0 -430 139l-139 -162l-89 80l142 164q-176 201 -176 512zM254 715q0 -244 123 -408l778 903q-142 129 -350 129 q-248 0 -399.5 -175t-151.5 -449zM459 219q144 -119 346 -119q163 0 288.5 79.5t193 219t67.5 316.5q0 239 -119 405z" />
<glyph unicode="&#xd9;" horiz-adv-x="1470" d="M174 541v893h135v-893q0 -202 117.5 -317t308.5 -115q190 0 307 115t117 317v893h137v-893q0 -260 -155.5 -409.5t-405.5 -149.5q-251 0 -406 149t-155 410zM485 1819h181l110 -269h-108z" />
<glyph unicode="&#xda;" horiz-adv-x="1470" d="M174 541v893h135v-893q0 -202 117.5 -317t308.5 -115q190 0 307 115t117 317v893h137v-893q0 -260 -155.5 -409.5t-405.5 -149.5q-251 0 -406 149t-155 410zM705 1550l110 269h180l-182 -269h-108z" />
<glyph unicode="&#xdb;" horiz-adv-x="1470" d="M174 541v893h135v-893q0 -202 117.5 -317t308.5 -115q190 0 307 115t117 317v893h137v-893q0 -260 -155.5 -409.5t-405.5 -149.5q-251 0 -406 149t-155 410zM442 1550l211 269h164l211 -269h-127l-166 166l-168 -166h-125z" />
<glyph unicode="&#xdc;" horiz-adv-x="1470" d="M174 541v893h135v-893q0 -202 117.5 -317t308.5 -115q190 0 307 115t117 317v893h137v-893q0 -260 -155.5 -409.5t-405.5 -149.5q-251 0 -406 149t-155 410zM446 1579v211h164v-211h-164zM860 1579v211h164v-211h-164z" />
<glyph unicode="&#xdd;" horiz-adv-x="1396" d="M61 1434h156l481 -752l482 752h155l-567 -879v-555h-137v553zM668 1550l110 269h180l-182 -269h-108z" />
<glyph unicode="&#xde;" horiz-adv-x="1380" d="M186 0v1434h138v-279h534q203 0 331 -121.5t128 -292.5q0 -184 -126 -301.5t-333 -117.5h-534v-322h-138zM324 438h534q145 0 232.5 88.5t87.5 214.5q0 121 -87.5 209t-232.5 88h-534v-600z" />
<glyph unicode="&#xdf;" horiz-adv-x="1355" d="M25 911v113h221q6 190 136 312t329 122q161 0 268.5 -89t107.5 -224q0 -59 -21.5 -108.5t-52.5 -82t-62 -60t-52.5 -57t-21.5 -59.5t22.5 -57.5t58 -50.5t79 -48t86.5 -55t78.5 -65.5t58 -87t22.5 -111.5q0 -143 -113 -234.5t-282 -91.5q-102 0 -206 35.5t-171 85.5v156 q208 -160 373 -160q111 0 188.5 57.5t77.5 151.5q0 48 -22.5 87.5t-58 67t-78.5 53t-86 50.5t-78.5 53t-58 68t-22.5 88t21.5 87.5t52.5 68.5t61.5 58.5t52 70t21.5 90.5q0 86 -69 142t-174 56q-149 0 -241.5 -94.5t-92.5 -242.5v-1006h-131v911h-221z" />
<glyph unicode="&#xe0;" d="M92 268q0 334 555 334h178v74q0 119 -75.5 186.5t-202.5 67.5q-117 0 -191.5 -60t-83.5 -163h-139q7 151 121.5 243t290.5 92q190 0 300.5 -97.5t110.5 -268.5v-676h-131v197h-4q-44 -91 -145.5 -153t-257.5 -62q-142 0 -234 80.5t-92 205.5zM227 268q0 -78 62.5 -129 t159.5 -51q161 0 266 89.5t110 219.5v109h-178q-116 0 -198.5 -16.5t-130 -49t-69.5 -74.5t-22 -98zM344 1434h166l111 -283h-95z" />
<glyph unicode="&#xe1;" d="M92 268q0 334 555 334h178v74q0 119 -75.5 186.5t-202.5 67.5q-117 0 -191.5 -60t-83.5 -163h-139q7 151 121.5 243t290.5 92q190 0 300.5 -97.5t110.5 -268.5v-676h-131v197h-4q-44 -91 -145.5 -153t-257.5 -62q-142 0 -234 80.5t-92 205.5zM227 268q0 -78 62.5 -129 t159.5 -51q161 0 266 89.5t110 219.5v109h-178q-116 0 -198.5 -16.5t-130 -49t-69.5 -74.5t-22 -98zM492 1151l110 283h166l-182 -283h-94z" />
<glyph unicode="&#xe2;" d="M92 268q0 334 555 334h178v74q0 119 -75.5 186.5t-202.5 67.5q-117 0 -191.5 -60t-83.5 -163h-139q7 151 121.5 243t290.5 92q190 0 300.5 -97.5t110.5 -268.5v-676h-131v197h-4q-44 -91 -145.5 -153t-257.5 -62q-142 0 -234 80.5t-92 205.5zM227 268q0 -78 62.5 -129 t159.5 -51q161 0 266 89.5t110 219.5v109h-178q-116 0 -198.5 -16.5t-130 -49t-69.5 -74.5t-22 -98zM289 1153l180 281h149l181 -281h-103l-151 180l-152 -180h-104z" />
<glyph unicode="&#xe3;" d="M92 268q0 334 555 334h178v74q0 119 -75.5 186.5t-202.5 67.5q-117 0 -191.5 -60t-83.5 -163h-139q7 151 121.5 243t290.5 92q190 0 300.5 -97.5t110.5 -268.5v-676h-131v197h-4q-44 -91 -145.5 -153t-257.5 -62q-142 0 -234 80.5t-92 205.5zM227 268q0 -78 62.5 -129 t159.5 -51q161 0 266 89.5t110 219.5v109h-178q-116 0 -198.5 -16.5t-130 -49t-69.5 -74.5t-22 -98zM258 1192q3 92 54.5 136t129.5 44q39 0 71.5 -13t51 -28t44 -28t53.5 -13q80 0 83 82h99q-1 -86 -50.5 -133t-127.5 -47q-50 0 -87.5 21.5t-69.5 43t-67 21.5 q-78 0 -84 -86h-100z" />
<glyph unicode="&#xe4;" d="M92 268q0 334 555 334h178v74q0 119 -75.5 186.5t-202.5 67.5q-117 0 -191.5 -60t-83.5 -163h-139q7 151 121.5 243t290.5 92q190 0 300.5 -97.5t110.5 -268.5v-676h-131v197h-4q-44 -91 -145.5 -153t-257.5 -62q-142 0 -234 80.5t-92 205.5zM227 268q0 -78 62.5 -129 t159.5 -51q161 0 266 89.5t110 219.5v109h-178q-116 0 -198.5 -16.5t-130 -49t-69.5 -74.5t-22 -98zM276 1233v201h164v-201h-164zM649 1233v201h164v-201h-164z" />
<glyph unicode="&#xe5;" d="M92 268q0 334 555 334h178v74q0 119 -75.5 186.5t-202.5 67.5q-117 0 -191.5 -60t-83.5 -163h-139q7 151 121.5 243t290.5 92q190 0 300.5 -97.5t110.5 -268.5v-676h-131v197h-4q-44 -91 -145.5 -153t-257.5 -62q-142 0 -234 80.5t-92 205.5zM227 268q0 -78 62.5 -129 t159.5 -51q161 0 266 89.5t110 219.5v109h-178q-116 0 -198.5 -16.5t-130 -49t-69.5 -74.5t-22 -98zM344 1323q0 83 61 139t144 56t143 -56t60 -139t-60 -138t-143 -55q-84 0 -144.5 55t-60.5 138zM432 1323q0 -51 33 -85t84 -34q50 0 83.5 34t33.5 85q0 52 -33.5 85.5 t-83.5 33.5q-51 0 -84 -33.5t-33 -85.5z" />
<glyph unicode="&#xe6;" horiz-adv-x="1875" d="M92 268q0 159 133 242.5t422 83.5h182v82q0 121 -68.5 187.5t-193.5 66.5q-127 0 -203.5 -60t-84.5 -163h-142q8 152 124.5 243.5t303.5 91.5q134 0 227 -51t136 -145q64 93 164 144.5t225 51.5q212 0 339.5 -145t127.5 -377v-22h-817v-15q7 -174 104.5 -281.5 t245.5 -107.5q106 0 191 55t122 160h146q-45 -156 -166.5 -241.5t-292.5 -85.5q-141 0 -249 63.5t-169 177.5q-58 -112 -173 -176.5t-269 -64.5q-169 0 -267 77t-98 209zM227 268q0 -82 62.5 -131t167.5 -49q162 0 267 96t105 244v70h-182q-154 0 -248.5 -28.5t-133 -77.5 t-38.5 -124zM971 594h680q-5 151 -96.5 243.5t-237.5 92.5q-144 0 -234.5 -90t-111.5 -246z" />
<glyph unicode="&#xe7;" d="M92 512q0 233 136 381.5t360 148.5q187 0 306 -101t148 -267h-135q-24 118 -105 187t-214 69q-168 0 -267.5 -116t-99.5 -302t99.5 -302t267.5 -116q137 0 220.5 74.5t106.5 198.5h132q-22 -162 -129.5 -266t-280.5 -117l-72 -105h15q84 0 137 -46t53 -116 q0 -71 -53 -117t-135 -46q-83 0 -140 49.5t-65 126.5l100 12q4 -47 31.5 -73.5t69.5 -26.5q37 0 62.5 21t25.5 54q0 37 -30 59.5t-87 22.5h-60l-28 66l88 117q-138 9 -242.5 79t-159.5 187t-55 264z" />
<glyph unicode="&#xe8;" horiz-adv-x="1153" d="M92 510q0 231 139.5 381.5t352.5 150.5t345 -146.5t132 -379.5v-29h-832v-8q7 -174 105.5 -279.5t251.5 -105.5q111 0 198.5 58t122.5 174h146q-43 -165 -168.5 -254.5t-298.5 -89.5q-223 0 -358.5 146.5t-135.5 381.5zM233 602h695q-3 142 -100 235t-244 93 q-140 0 -235.5 -90.5t-115.5 -237.5zM369 1434h166l110 -283h-94z" />
<glyph unicode="&#xe9;" horiz-adv-x="1153" d="M92 510q0 231 139.5 381.5t352.5 150.5t345 -146.5t132 -379.5v-29h-832v-8q7 -174 105.5 -279.5t251.5 -105.5q111 0 198.5 58t122.5 174h146q-43 -165 -168.5 -254.5t-298.5 -89.5q-223 0 -358.5 146.5t-135.5 381.5zM233 602h695q-3 142 -100 235t-244 93 q-140 0 -235.5 -90.5t-115.5 -237.5zM530 1151l111 283h166l-182 -283h-95z" />
<glyph unicode="&#xea;" horiz-adv-x="1153" d="M92 510q0 231 139.5 381.5t352.5 150.5t345 -146.5t132 -379.5v-29h-832v-8q7 -174 105.5 -279.5t251.5 -105.5q111 0 198.5 58t122.5 174h146q-43 -165 -168.5 -254.5t-298.5 -89.5q-223 0 -358.5 146.5t-135.5 381.5zM233 602h695q-3 142 -100 235t-244 93 q-140 0 -235.5 -90.5t-115.5 -237.5zM328 1153l180 281h149l181 -281h-103l-151 180l-152 -180h-104z" />
<glyph unicode="&#xeb;" horiz-adv-x="1153" d="M92 510q0 231 139.5 381.5t352.5 150.5t345 -146.5t132 -379.5v-29h-832v-8q7 -174 105.5 -279.5t251.5 -105.5q111 0 198.5 58t122.5 174h146q-43 -165 -168.5 -254.5t-298.5 -89.5q-223 0 -358.5 146.5t-135.5 381.5zM233 602h695q-3 142 -100 235t-244 93 q-140 0 -235.5 -90.5t-115.5 -237.5zM315 1233v201h164v-201h-164zM688 1233v201h164v-201h-164z" />
<glyph unicode="&#xec;" horiz-adv-x="438" d="M-12 1434h166l110 -283h-94zM154 0v1024h131v-1024h-131z" />
<glyph unicode="&#xed;" horiz-adv-x="438" d="M154 0v1024h131v-1024h-131zM166 1151l110 283h166l-182 -283h-94z" />
<glyph unicode="&#xee;" horiz-adv-x="438" d="M-35 1153l180 281h150l180 -281h-102l-152 180l-151 -180h-105zM154 0v1024h131v-1024h-131z" />
<glyph unicode="&#xef;" horiz-adv-x="438" d="M-47 1233v201h164v-201h-164zM154 0v1024h131v-1024h-131zM326 1233v201h163v-201h-163z" />
<glyph unicode="&#xf0;" horiz-adv-x="1191" d="M92 516q0 231 137.5 378.5t362.5 147.5q115 0 211.5 -55t159.5 -170q-97 317 -426 424l-254 -186l-56 69l197 146q-120 24 -266 30v134q225 -6 403 -64l199 146l57 -72l-158 -113q121 -57 209 -141.5t137.5 -187.5t72 -212.5t22.5 -232.5q0 -253 -138.5 -414t-363.5 -161 q-228 0 -367 149t-139 385zM221 518q0 -187 102 -305.5t273 -118.5t273 118.5t102 305.5q0 178 -107.5 295t-269.5 117q-170 0 -271.5 -115t-101.5 -297z" />
<glyph unicode="&#xf1;" horiz-adv-x="1212" d="M172 0v1024h131v-229q46 122 141.5 184.5t223.5 62.5q184 0 284.5 -115.5t100.5 -318.5v-608h-131v608q0 150 -71.5 235t-195.5 85q-157 0 -254.5 -105t-97.5 -282v-541h-131zM326 1192q3 92 54.5 136t129.5 44q39 0 71.5 -13t50.5 -28t43.5 -28t53.5 -13q81 0 84 82h98 q-1 -86 -50.5 -133t-127.5 -47q-39 0 -72 13.5t-51.5 29.5t-45 29.5t-54.5 13.5q-78 0 -84 -86h-100z" />
<glyph unicode="&#xf2;" horiz-adv-x="1191" d="M92 512q0 232 139.5 381t364.5 149t364.5 -149t139.5 -381t-139.5 -381t-364.5 -149t-364.5 149t-139.5 381zM221 512q0 -185 103 -301.5t272 -116.5t272 116.5t103 301.5t-103 301.5t-272 116.5t-272 -116.5t-103 -301.5zM403 1434h166l111 -283h-94z" />
<glyph unicode="&#xf3;" horiz-adv-x="1191" d="M92 512q0 232 139.5 381t364.5 149t364.5 -149t139.5 -381t-139.5 -381t-364.5 -149t-364.5 149t-139.5 381zM221 512q0 -185 103 -301.5t272 -116.5t272 116.5t103 301.5t-103 301.5t-272 116.5t-272 -116.5t-103 -301.5zM575 1151l111 283h166l-182 -283h-95z" />
<glyph unicode="&#xf4;" horiz-adv-x="1191" d="M92 512q0 232 139.5 381t364.5 149t364.5 -149t139.5 -381t-139.5 -381t-364.5 -149t-364.5 149t-139.5 381zM221 512q0 -185 103 -301.5t272 -116.5t272 116.5t103 301.5t-103 301.5t-272 116.5t-272 -116.5t-103 -301.5zM340 1153l180 281h150l180 -281h-102l-152 180 l-152 -180h-104z" />
<glyph unicode="&#xf5;" horiz-adv-x="1191" d="M92 512q0 232 139.5 381t364.5 149t364.5 -149t139.5 -381t-139.5 -381t-364.5 -149t-364.5 149t-139.5 381zM221 512q0 -185 103 -301.5t272 -116.5t272 116.5t103 301.5t-103 301.5t-272 116.5t-272 -116.5t-103 -301.5zM309 1192q3 92 55 136t130 44q39 0 71.5 -13 t50.5 -28t43.5 -28t53.5 -13q81 0 84 82h98q-1 -86 -50.5 -133t-127.5 -47q-39 0 -72 13.5t-51.5 29.5t-45 29.5t-54.5 13.5q-78 0 -84 -86h-101z" />
<glyph unicode="&#xf6;" horiz-adv-x="1191" d="M92 512q0 232 139.5 381t364.5 149t364.5 -149t139.5 -381t-139.5 -381t-364.5 -149t-364.5 149t-139.5 381zM221 512q0 -185 103 -301.5t272 -116.5t272 116.5t103 301.5t-103 301.5t-272 116.5t-272 -116.5t-103 -301.5zM328 1233v201h164v-201h-164zM700 1233v201h164 v-201h-164z" />
<glyph unicode="&#xf7;" horiz-adv-x="1296" d="M160 645v107h979v-107h-979zM561 184v226h174v-226h-174zM563 987v225h172v-225h-172z" />
<glyph unicode="&#xf8;" horiz-adv-x="1191" d="M92 512q0 232 139.5 381t364.5 149q174 0 299 -92l115 133l80 -71l-115 -135q125 -144 125 -365q0 -232 -139.5 -381t-364.5 -149q-178 0 -307 96l-94 -109l-80 72l96 113q-119 144 -119 358zM221 512q0 -155 72 -262l524 610q-92 70 -221 70q-169 0 -272 -116.5 t-103 -301.5zM367 170q95 -76 229 -76q169 0 272 116.5t103 301.5q0 155 -78 270z" />
<glyph unicode="&#xf9;" horiz-adv-x="1208" d="M156 416v608h131v-608q0 -150 71 -235t193 -85q158 0 256 105.5t98 281.5v541h131v-1024h-131v215q-52 -115 -147 -174t-219 -59q-183 0 -283 115.5t-100 318.5zM426 1434h166l110 -283h-94z" />
<glyph unicode="&#xfa;" horiz-adv-x="1208" d="M156 416v608h131v-608q0 -150 71 -235t193 -85q158 0 256 105.5t98 281.5v541h131v-1024h-131v215q-52 -115 -147 -174t-219 -59q-183 0 -283 115.5t-100 318.5zM530 1151l111 283h166l-182 -283h-95z" />
<glyph unicode="&#xfb;" horiz-adv-x="1208" d="M156 416v608h131v-608q0 -150 71 -235t193 -85q158 0 256 105.5t98 281.5v541h131v-1024h-131v215q-52 -115 -147 -174t-219 -59q-183 0 -283 115.5t-100 318.5zM330 1153l180 281h149l181 -281h-103l-151 180l-152 -180h-104z" />
<glyph unicode="&#xfc;" horiz-adv-x="1208" d="M156 416v608h131v-608q0 -150 71 -235t193 -85q158 0 256 105.5t98 281.5v541h131v-1024h-131v215q-52 -115 -147 -174t-219 -59q-183 0 -283 115.5t-100 318.5zM317 1233v201h164v-201h-164zM690 1233v201h164v-201h-164z" />
<glyph unicode="&#xfd;" horiz-adv-x="1128" d="M-14 -254q113 -61 229 -61q78 0 141.5 41.5t100.5 126.5l53 122l-492 1049h154l403 -895l390 895h145l-543 -1221q-51 -116 -144 -176.5t-206 -60.5q-117 0 -231 49v131zM524 1151l111 283h166l-183 -283h-94z" />
<glyph unicode="&#xfe;" horiz-adv-x="1253" d="M172 -410v1844h131l-2 -621h2q44 104 144 166.5t223 62.5q222 0 356.5 -149t134.5 -383q0 -233 -134.5 -380.5t-356.5 -147.5q-126 0 -226 58.5t-141 156.5h-2l2 -607h-131zM293 500q1 -180 106 -293t267 -113q167 0 266.5 116t99.5 300q0 186 -99.5 303t-266.5 117 q-163 0 -268 -112.5t-105 -293.5v-24z" />
<glyph unicode="&#xff;" horiz-adv-x="1128" d="M-14 -254q113 -61 229 -61q78 0 141.5 41.5t100.5 126.5l53 122l-492 1049h154l403 -895l390 895h145l-543 -1221q-51 -116 -144 -176.5t-206 -60.5q-117 0 -231 49v131zM309 1233v201h164v-201h-164zM682 1233v201h164v-201h-164z" />
<glyph unicode="&#x152;" horiz-adv-x="2181" d="M72 717q0 208 88 370t255.5 254.5t389.5 92.5h434h854v-117h-854v-529h807v-116h-807v-555h854v-117h-989h-299q-222 0 -389.5 92.5t-255.5 254.5t-88 370zM213 717q0 -174 68.5 -309.5t199.5 -213t307 -77.5h316v1200h-316q-176 0 -307 -77.5t-199.5 -213t-68.5 -309.5z " />
<glyph unicode="&#x153;" horiz-adv-x="2039" d="M92 512q0 232 139.5 381t364.5 149q149 0 263.5 -68t176.5 -188q62 120 174 188t252 68q213 0 345 -146.5t132 -379.5v-29h-831v-8q7 -174 105 -279.5t251 -105.5q111 0 199 58t123 174h145q-43 -165 -168.5 -254.5t-298.5 -89.5q-147 0 -258 66t-174 185 q-62 -119 -175.5 -185t-260.5 -66q-225 0 -364.5 149t-139.5 381zM221 512q0 -185 103 -301.5t272 -116.5t272 116.5t103 301.5t-103 301.5t-272 116.5t-272 -116.5t-103 -301.5zM1112 602h694q-3 142 -100 235t-244 93q-140 0 -235 -90t-115 -238z" />
<glyph unicode="&#x178;" horiz-adv-x="1396" d="M61 1434h156l481 -752l482 752h155l-567 -879v-555h-137v553zM410 1579v211h163v-211h-163zM823 1579v211h164v-211h-164z" />
<glyph unicode="&#x2c6;" horiz-adv-x="819" d="M154 1153l180 281h149l181 -281h-103l-151 180l-152 -180h-104z" />
<glyph unicode="&#x2dc;" horiz-adv-x="819" d="M123 1192q3 92 54.5 136t129.5 44q39 0 71.5 -13t50.5 -28t43.5 -28t53.5 -13q81 0 84 82h99q-1 -86 -51 -133t-128 -47q-39 0 -72 13.5t-51.5 29.5t-45 29.5t-54.5 13.5q-78 0 -84 -86h-100z" />
<glyph unicode="&#x2000;" horiz-adv-x="933" />
<glyph unicode="&#x2001;" horiz-adv-x="1866" />
<glyph unicode="&#x2002;" horiz-adv-x="933" />
<glyph unicode="&#x2003;" horiz-adv-x="1866" />
<glyph unicode="&#x2004;" horiz-adv-x="622" />
<glyph unicode="&#x2005;" horiz-adv-x="466" />
<glyph unicode="&#x2006;" horiz-adv-x="311" />
<glyph unicode="&#x2007;" horiz-adv-x="311" />
<glyph unicode="&#x2008;" horiz-adv-x="233" />
<glyph unicode="&#x2009;" horiz-adv-x="373" />
<glyph unicode="&#x200a;" horiz-adv-x="103" />
<glyph unicode="&#x2010;" horiz-adv-x="880" d="M143 510v115h594v-115h-594z" />
<glyph unicode="&#x2011;" horiz-adv-x="880" d="M143 510v115h594v-115h-594z" />
<glyph unicode="&#x2012;" horiz-adv-x="880" d="M143 510v115h594v-115h-594z" />
<glyph unicode="&#x2013;" horiz-adv-x="1495" d="M143 518v107h1209v-107h-1209z" />
<glyph unicode="&#x2014;" horiz-adv-x="2334" d="M143 518v107h2048v-107h-2048z" />
<glyph unicode="&#x2018;" horiz-adv-x="555" d="M139 965l146 469h98l-78 -469h-166z" />
<glyph unicode="&#x2019;" horiz-adv-x="524" d="M160 965l80 469h163l-143 -469h-100z" />
<glyph unicode="&#x201a;" horiz-adv-x="524" d="M152 -274l79 469h164l-143 -469h-100z" />
<glyph unicode="&#x201c;" horiz-adv-x="897" d="M147 965l146 469h98l-78 -469h-166zM492 965l143 469h100l-80 -469h-163z" />
<glyph unicode="&#x201d;" horiz-adv-x="866" d="M162 965l78 469h166l-146 -469h-98zM504 965l80 469h164l-144 -469h-100z" />
<glyph unicode="&#x201e;" horiz-adv-x="866" d="M152 -274l79 469h164l-143 -469h-100zM496 -274l77 469h166l-145 -469h-98z" />
<glyph unicode="&#x2022;" horiz-adv-x="751" d="M102 657v5q0 110 80.5 190t192.5 80q114 0 194 -79.5t80 -190.5v-5q0 -111 -80 -190.5t-194 -79.5q-112 0 -192.5 80t-80.5 190z" />
<glyph unicode="&#x2026;" horiz-adv-x="1441" d="M166 -6v201h164v-201h-164zM647 -6v201h164v-201h-164zM1128 -6v201h164v-201h-164z" />
<glyph unicode="&#x202f;" horiz-adv-x="373" />
<glyph unicode="&#x2039;" horiz-adv-x="669" d="M119 535l291 354h159l-305 -354l305 -355h-159z" />
<glyph unicode="&#x203a;" horiz-adv-x="669" d="M100 180l308 355l-308 354h160l293 -354l-293 -355h-160z" />
<glyph unicode="&#x205f;" horiz-adv-x="466" />
<glyph unicode="&#x20ac;" horiz-adv-x="1466" d="M16 512v104h197q-4 62 -4 99q0 36 4 106h-197v105h211q45 250 198 391t390 141q205 0 349.5 -128.5t195.5 -352.5h-143q-39 172 -145 271.5t-257 99.5q-178 0 -294 -111.5t-156 -310.5h612v-105h-627q-4 -35 -4 -106q0 -68 2 -99h629v-104h-615q40 -201 157 -313.5 t296 -112.5q144 0 247.5 92.5t143.5 253.5h144q-54 -214 -195.5 -335.5t-339.5 -121.5q-239 0 -392 142.5t-198 394.5h-209z" />
<glyph unicode="&#x2122;" horiz-adv-x="1488" d="M53 1343v91h531v-91h-213v-587h-103v587h-215zM694 756v678h90l256 -312l258 312h88v-678h-100v512l-231 -271h-27l-233 273v-514h-101z" />
<glyph unicode="&#x25fc;" horiz-adv-x="1024" d="M0 0v1024h1024v-1024h-1024z" />
<glyph unicode="&#xfb01;" horiz-adv-x="1234" d="M25 911v113h221v66q0 167 115.5 267.5t291.5 100.5q149 0 293 -72v-120q-147 73 -293 73q-121 0 -198.5 -66t-77.5 -183v-66h670v-1024h-132v911h-538v-911h-131v911h-221z" />
<glyph unicode="&#xfb03;" horiz-adv-x="1996" d="M25 911v113h221v66q0 167 115.5 267.5t291.5 100.5q122 0 242 -49v-121q-122 51 -242 51q-121 0 -198.5 -66t-77.5 -183v-66h584v66q0 167 115.5 267.5t291.5 100.5q151 0 295 -72v-120q-150 73 -295 73q-121 0 -198.5 -66t-77.5 -183v-66h716v-1024h-131v911h-585v-911 h-131v911h-584v-911h-131v911h-221z" />
</font>
</defs>
</svg>
